<svg width="26" height="26" viewBox="0 0 26 26" fill="none" xmlns="http://www.w3.org/2000/svg">
<path d="M12.9043 15.3269V15.9463H12.9043C12.9043 16.4059 13.2782 16.7797 13.7377 16.7797H14.7069C15.1665 16.7797 15.5403 16.4059 15.5403 15.9463V15.3269H12.9043Z" fill="black"/>
<path d="M14.2224 8.89722C13.9369 8.89722 13.7046 9.12949 13.7046 9.41503C13.7046 9.70053 13.9369 9.9328 14.2224 9.9328C14.5078 9.9328 14.7402 9.70053 14.7402 9.41503C14.7402 9.12954 14.5078 8.89722 14.2224 8.89722Z" fill="black"/>
<path d="M14.2222 5.72852C12.1895 5.72852 10.5356 7.38231 10.5356 9.41514C10.5356 10.3783 10.9036 11.2872 11.5725 11.9783L11.5889 11.9946C12.0988 12.5026 12.4824 13.1123 12.7177 13.7822H13.4499V11.3269C12.6943 11.0205 12.1598 10.2793 12.1598 9.41514C12.1598 8.27794 13.085 7.35271 14.2222 7.35271C15.3594 7.35271 16.2847 8.27789 16.2847 9.41514C16.2847 10.2793 15.7501 11.0206 14.9946 11.3269V13.7822H15.7268C15.962 13.1122 16.3457 12.5026 16.8557 11.9946L16.8726 11.9777C17.5412 11.2867 17.9089 10.378 17.9089 9.41509C17.9089 7.38231 16.255 5.72852 14.2222 5.72852Z" fill="black"/>
<path d="M14.2222 0C8.91292 0 4.58518 4.28366 4.51374 9.57635L2.06836 16.6083H4.51287V21.8482H9.25656V26H20.4054V17.1949C21.4334 16.3438 22.2875 15.2775 22.8887 14.0909C23.5807 12.7248 23.9317 11.2507 23.9317 9.70944C23.9316 4.35562 19.576 0 14.2222 0ZM17.9514 13.0836L17.8792 13.1571C17.4851 13.5734 17.2123 14.0829 17.0848 14.6393V15.9463C17.0848 17.2575 16.018 18.3243 14.7068 18.3243H13.7376C12.4263 18.3243 11.3596 17.2575 11.3596 15.9463V14.6393C11.232 14.0821 10.9586 13.572 10.5636 13.1553L10.493 13.0836C9.52438 12.0991 8.99097 10.7963 8.99097 9.41507C8.99097 6.53058 11.3377 4.18382 14.2222 4.18382C17.1066 4.18382 19.4534 6.53053 19.4534 9.41507C19.4535 10.7963 18.92 12.0991 17.9514 13.0836Z" fill="black"/>
</svg>
