<svg width="26" height="25" viewBox="0 0 26 25" fill="none" xmlns="http://www.w3.org/2000/svg">
<path d="M13 0C5.83176 0 0 5.60746 0 12.5C0 19.3925 5.83176 25 13 25C20.1682 25 26 19.3925 26 12.5C26 5.60746 20.1682 0 13 0ZM13 23.0583C6.94528 23.0583 2.01942 18.3218 2.01942 12.5C2.01942 6.67816 6.94528 1.94175 13 1.94175C19.0547 1.94175 23.9806 6.67816 23.9806 12.5C23.9806 18.3218 19.0547 23.0583 13 23.0583Z" fill="black"/>
<path d="M12.9998 4.85449C8.61533 4.85449 5.04834 8.28429 5.04834 12.5001C5.04834 16.716 8.61533 20.1458 12.9998 20.1458C14.4797 20.1458 15.8661 19.7546 17.054 19.0748L16.4975 18.5203C16.4372 18.6554 16.3501 18.7765 16.239 18.8795C16.0235 19.0796 15.7391 19.1901 15.4386 19.1901C14.9683 19.1888 14.5512 18.9196 14.373 18.5044L14.1942 18.0878C13.8083 18.164 13.4089 18.204 12.9998 18.204C9.72885 18.204 7.06776 15.6453 7.06776 12.5001C7.06776 9.35498 9.72885 6.79624 12.9998 6.79624C16.2707 6.79624 18.9318 9.35498 18.9318 12.5001C18.9318 12.949 18.8774 13.3859 18.775 13.8052L19.2253 14.0022C19.6509 14.1885 19.9156 14.599 19.9001 15.048C19.8849 15.4928 19.5971 15.8829 19.166 16.0442L19.7145 16.5908C20.4973 15.4072 20.9513 14.0037 20.9513 12.5001C20.9513 8.28429 17.3843 4.85449 12.9998 4.85449Z" fill="black"/>
<path d="M13.0529 11.4111C13.2181 11.4111 13.3783 11.4444 13.5289 11.51L15.3905 12.3244C15.2971 11.133 14.263 10.1941 13.0001 10.1941C11.6757 10.1941 10.6021 11.2264 10.6021 12.4999C10.6021 13.7027 11.56 14.69 12.7823 14.7959L11.987 12.9423C11.8053 12.519 11.9094 12.0398 12.2524 11.7218C12.4677 11.5216 12.7523 11.4111 13.0529 11.4111Z" fill="black"/>
<path d="M17.5715 15.6817L18.9054 15.1969C18.9832 15.1683 19.0357 15.0978 19.0385 15.0178C19.0414 14.9378 18.9937 14.864 18.9179 14.8308L13.2224 12.3393C13.1452 12.3057 13.0547 12.3206 12.9937 12.3772C12.9328 12.4337 12.914 12.5202 12.9463 12.5955L15.3326 18.1572C15.3644 18.2313 15.4393 18.2798 15.5227 18.2799C15.5774 18.28 15.6287 18.2593 15.6665 18.2242C15.6863 18.2058 15.7024 18.1836 15.7135 18.1582L16.2651 16.8936L18.3143 18.9355C18.3933 19.0143 18.5239 19.0165 18.6059 18.9404L19.6153 18.0038C19.6973 17.9277 19.6996 17.8022 19.6204 17.7234L17.5715 15.6817Z" fill="black"/>
</svg>
