<svg width="250" height="49" viewBox="0 0 250 49" fill="none" xmlns="http://www.w3.org/2000/svg">
<path d="M49 0H0V49H49V0Z" fill="black"/>
<path d="M47 2H2V47H47V2Z" fill="url(#paint0_linear)"/>
<path d="M24.5 44C35.2696 44 44 35.2696 44 24.5C44 13.7304 35.2696 5 24.5 5C13.7304 5 5 13.7304 5 24.5C5 35.2696 13.7304 44 24.5 44Z" fill="url(#paint1_linear)"/>
<path fill-rule="evenodd" clip-rule="evenodd" d="M24 5.61842C13.8263 5.61842 5.57895 14.072 5.57895 24.5C5.57895 34.928 13.8263 43.3816 24 43.3816C34.1737 43.3816 42.4211 34.928 42.4211 24.5C42.4211 14.072 34.1737 5.61842 24 5.61842ZM4 24.5C4 13.1782 12.9543 4 24 4C35.0457 4 44 13.1782 44 24.5C44 35.8218 35.0457 45 24 45C12.9543 45 4 35.8218 4 24.5Z" fill="white"/>
<path d="M20.9861 36V28.0139H13V20.9861H20.9861V13H28.0139V20.9861H36V28.0139H28.0139V36H20.9861Z" fill="url(#paint2_linear)"/>
<path fill-rule="evenodd" clip-rule="evenodd" d="M20.793 13H29.207V20.793H37V29.207H29.207V37H20.793V29.207H13V20.793H20.793V13ZM22.3491 14.5561V22.3491H14.5561V27.6509H22.3491V35.4439H27.6509V27.6509H35.4439V22.3491H27.6509V14.5561H22.3491Z" fill="white"/>
<path d="M59.6743 1.37741H65.3608C66.84 1.37741 68.1086 1.51831 69.1665 1.8001C70.2245 2.0819 71.1845 2.61027 72.0465 3.38522C74.2898 5.3578 75.4114 8.35693 75.4114 12.3826C75.4114 13.7111 75.2988 14.9238 75.0735 16.0208C74.8482 17.1178 74.5004 18.1091 74.0302 18.9948C73.56 19.8704 72.9576 20.6554 72.2229 21.3498C71.6449 21.8832 71.0131 22.3109 70.3273 22.633C69.6416 22.9551 68.902 23.1815 68.1086 23.3123C67.3249 23.4432 66.4384 23.5086 65.449 23.5086H59.7624C58.969 23.5086 58.3714 23.3878 57.9698 23.1463C57.5682 22.8947 57.3037 22.5475 57.1763 22.1046C57.0588 21.6517 57 21.068 57 20.3535V4.12493C57 3.15877 57.2106 2.45931 57.6318 2.02655C58.0531 1.59379 58.7339 1.37741 59.6743 1.37741ZM61.3641 4.92504V19.9459H64.6702C65.3951 19.9459 65.9633 19.9257 66.3747 19.8855C66.7861 19.8452 67.2122 19.7446 67.6531 19.5835C68.0939 19.4225 68.4759 19.1961 68.7992 18.9042C70.2588 17.6361 70.9886 15.4522 70.9886 12.3524C70.9886 10.1685 70.6653 8.53306 70.0188 7.44612C69.382 6.35919 68.5935 5.66979 67.6531 5.37793C66.7127 5.076 65.5763 4.92504 64.2441 4.92504H61.3641Z" fill="black"/>
<path d="M90.1641 16.519H82.3176C82.3273 17.455 82.5086 18.2802 82.8612 18.9948C83.2237 19.7094 83.6988 20.2478 84.2865 20.6101C84.8841 20.9724 85.5404 21.1536 86.2555 21.1536C86.7355 21.1536 87.1714 21.0982 87.5633 20.9875C87.9649 20.8667 88.3518 20.6856 88.7241 20.444C89.0963 20.1924 89.4392 19.9257 89.7527 19.6439C90.0661 19.3621 90.4727 18.9797 90.9722 18.4966C91.178 18.3155 91.4718 18.2249 91.8539 18.2249C92.2653 18.2249 92.5984 18.3406 92.8531 18.5721C93.1078 18.8036 93.2351 19.1307 93.2351 19.5534C93.2351 19.9257 93.0931 20.3635 92.809 20.8667C92.5249 21.3599 92.0939 21.8379 91.5159 22.3009C90.9478 22.7538 90.2278 23.1312 89.3559 23.4331C88.4939 23.735 87.4996 23.886 86.3731 23.886C83.7967 23.886 81.7935 23.1312 80.3633 21.6216C78.9331 20.1119 78.218 18.0639 78.218 15.4774C78.218 14.2596 78.3943 13.1324 78.7469 12.0958C79.0996 11.0491 79.6139 10.1534 80.2898 9.40864C80.9657 8.66389 81.7984 8.09526 82.7878 7.70276C83.7771 7.30019 84.8743 7.09891 86.0792 7.09891C87.6465 7.09891 88.9886 7.44109 90.1053 8.12546C91.2318 8.79976 92.0743 9.67534 92.6327 10.7522C93.191 11.8291 93.4702 12.9261 93.4702 14.0432C93.4702 15.0798 93.1812 15.7541 92.6033 16.0661C92.0253 16.368 91.2122 16.519 90.1641 16.519ZM82.3176 14.1791H89.591C89.4931 12.7701 89.1208 11.7184 88.4743 11.0239C87.8376 10.3195 86.9951 9.9672 85.9469 9.9672C84.9478 9.9672 84.1249 10.3245 83.4784 11.039C82.8416 11.7435 82.4547 12.7902 82.3176 14.1791Z" fill="black"/>
<path d="M109.78 18.4966C109.78 19.6339 109.511 20.6101 108.972 21.4253C108.433 22.2304 107.635 22.8444 106.577 23.267C105.529 23.6797 104.251 23.886 102.742 23.886C101.302 23.886 100.068 23.6596 99.0392 23.2067C98.0106 22.7538 97.2514 22.1902 96.7616 21.5159C96.2718 20.8315 96.0269 20.1471 96.0269 19.4628C96.0269 19.0099 96.1837 18.6224 96.4971 18.3004C96.8106 17.9783 97.2073 17.8173 97.6873 17.8173C98.1086 17.8173 98.4318 17.923 98.6571 18.1343C98.8825 18.3457 99.098 18.6425 99.3037 19.025C99.7151 19.7597 100.205 20.3082 100.773 20.6705C101.351 21.0328 102.135 21.214 103.124 21.214C103.927 21.214 104.584 21.0328 105.093 20.6705C105.612 20.2981 105.872 19.8754 105.872 19.4024C105.872 18.6778 105.602 18.1494 105.064 17.8173C104.535 17.4852 103.658 17.1681 102.433 16.8662C101.052 16.514 99.9257 16.1466 99.0539 15.7642C98.1918 15.3717 97.5012 14.8584 96.982 14.2244C96.4629 13.5903 96.2033 12.8103 96.2033 11.8844C96.2033 11.0592 96.4433 10.2792 96.9233 9.54451C97.4033 8.80982 98.1086 8.2261 99.0392 7.79334C99.9796 7.35051 101.111 7.1291 102.433 7.1291C103.472 7.1291 104.402 7.23981 105.225 7.46122C106.058 7.68263 106.749 7.97952 107.297 8.3519C107.856 8.72428 108.277 9.13691 108.561 9.5898C108.855 10.0427 109.002 10.4855 109.002 10.9183C109.002 11.3913 108.845 11.7788 108.531 12.0807C108.228 12.3826 107.792 12.5336 107.224 12.5336C106.812 12.5336 106.46 12.4128 106.166 12.1713C105.882 11.9297 105.553 11.5674 105.181 11.0843C104.878 10.6818 104.52 10.3597 104.109 10.1182C103.697 9.87663 103.139 9.75586 102.433 9.75586C101.709 9.75586 101.106 9.91688 100.626 10.2389C100.146 10.5509 99.9061 10.9434 99.9061 11.4164C99.9061 11.8492 100.082 12.2065 100.435 12.4883C100.788 12.76 101.263 12.9865 101.86 13.1676C102.458 13.3488 103.281 13.5702 104.329 13.8319C105.573 14.1438 106.587 14.5162 107.371 14.949C108.164 15.3817 108.762 15.895 109.163 16.4888C109.575 17.0725 109.78 17.7418 109.78 18.4966Z" fill="black"/>
<path d="M113.395 7.49141H113.836V5.01562C113.836 4.35138 113.851 3.83307 113.88 3.4607C113.919 3.07826 114.017 2.75117 114.174 2.47944C114.331 2.19764 114.556 1.9712 114.85 1.8001C115.144 1.61895 115.472 1.52837 115.834 1.52837C116.344 1.52837 116.804 1.72462 117.216 2.11713C117.49 2.3788 117.661 2.70085 117.73 3.08329C117.808 3.45567 117.847 3.98907 117.847 4.6835V7.49141H119.317C119.885 7.49141 120.316 7.63231 120.61 7.91411C120.913 8.18584 121.065 8.53809 121.065 8.97085C121.065 9.52438 120.85 9.91185 120.419 10.1333C119.998 10.3547 119.39 10.4654 118.597 10.4654H117.847V18.0437C117.847 18.6878 117.867 19.186 117.906 19.5383C117.955 19.8804 118.073 20.1622 118.259 20.3837C118.455 20.595 118.768 20.7007 119.199 20.7007C119.434 20.7007 119.753 20.6604 120.154 20.5799C120.556 20.4893 120.869 20.444 121.095 20.444C121.418 20.444 121.707 20.5799 121.962 20.8516C122.226 21.1133 122.358 21.4404 122.358 21.8329C122.358 22.4971 122.006 23.0054 121.3 23.3576C120.595 23.7099 119.581 23.886 118.259 23.886C117.005 23.886 116.055 23.6696 115.408 23.2369C114.762 22.8041 114.336 22.2053 114.13 21.4404C113.934 20.6755 113.836 19.654 113.836 18.3758V10.4654H113.307C112.729 10.4654 112.288 10.3245 111.984 10.0427C111.681 9.76089 111.529 9.40361 111.529 8.97085C111.529 8.53809 111.686 8.18584 111.999 7.91411C112.322 7.63231 112.788 7.49141 113.395 7.49141Z" fill="black"/>
<path d="M127.854 9.46903V21.38C127.854 22.2053 127.663 22.8293 127.281 23.252C126.899 23.6746 126.414 23.886 125.826 23.886C125.238 23.886 124.758 23.6696 124.386 23.2369C124.024 22.8041 123.842 22.1851 123.842 21.38V9.5898C123.842 8.7746 124.024 8.16068 124.386 7.74805C124.758 7.33542 125.238 7.1291 125.826 7.1291C126.414 7.1291 126.899 7.33542 127.281 7.74805C127.663 8.16068 127.854 8.73434 127.854 9.46903ZM125.87 5.21187C125.312 5.21187 124.832 5.03575 124.43 4.6835C124.038 4.33125 123.842 3.83307 123.842 3.18896C123.842 2.60524 124.043 2.12719 124.445 1.75482C124.856 1.37238 125.331 1.18116 125.87 1.18116C126.389 1.18116 126.85 1.35225 127.251 1.69443C127.653 2.03661 127.854 2.53479 127.854 3.18896C127.854 3.82301 127.658 4.32119 127.266 4.6835C126.874 5.03575 126.409 5.21187 125.87 5.21187Z" fill="black"/>
<path d="M135.656 9.40864V9.90682C136.362 8.95072 137.131 8.25126 137.963 7.80843C138.806 7.35554 139.771 7.1291 140.858 7.1291C141.916 7.1291 142.861 7.36561 143.694 7.83863C144.527 8.31164 145.149 8.98091 145.56 9.84643C145.824 10.3496 145.996 10.8931 146.074 11.4768C146.153 12.0606 146.192 12.8053 146.192 13.7111V21.38C146.192 22.2053 146.006 22.8293 145.633 23.252C145.271 23.6746 144.796 23.886 144.208 23.886C143.611 23.886 143.126 23.6696 142.753 23.2369C142.381 22.8041 142.195 22.1851 142.195 21.38V14.5112C142.195 13.1525 142.009 12.1159 141.637 11.4014C141.274 10.6767 140.544 10.3144 139.447 10.3144C138.732 10.3144 138.081 10.5358 137.493 10.9787C136.905 11.4114 136.474 12.0102 136.2 12.7751C136.004 13.389 135.906 14.5364 135.906 16.2171V21.38C135.906 22.2153 135.715 22.8444 135.333 23.267C134.961 23.6797 134.476 23.886 133.878 23.886C133.3 23.886 132.825 23.6696 132.453 23.2369C132.081 22.8041 131.895 22.1851 131.895 21.38V9.46903C131.895 8.68402 132.061 8.10029 132.394 7.71785C132.727 7.32535 133.183 7.1291 133.761 7.1291C134.113 7.1291 134.432 7.21464 134.716 7.38574C135 7.55683 135.225 7.81347 135.392 8.15565C135.568 8.49783 135.656 8.91549 135.656 9.40864Z" fill="black"/>
<path d="M153.906 24.3993L154.273 23.4784L149.336 10.7069C149.033 9.97224 148.881 9.43883 148.881 9.10672C148.881 8.75447 148.969 8.42738 149.145 8.12546C149.322 7.82353 149.562 7.58199 149.865 7.40083C150.179 7.21968 150.502 7.1291 150.835 7.1291C151.413 7.1291 151.849 7.32032 152.143 7.70276C152.437 8.07513 152.696 8.61357 152.922 9.31806L156.316 19.4628L159.534 10.0276C159.789 9.26271 160.019 8.66389 160.224 8.23113C160.43 7.79837 160.646 7.50651 160.871 7.35554C161.106 7.20458 161.434 7.1291 161.856 7.1291C162.159 7.1291 162.448 7.21464 162.722 7.38574C163.007 7.54676 163.222 7.76818 163.369 8.04997C163.526 8.33177 163.604 8.62867 163.604 8.94066C163.565 9.13188 163.501 9.40361 163.413 9.75586C163.325 10.1081 163.217 10.4654 163.09 10.8277L157.859 24.8974C157.408 26.1353 156.967 27.1065 156.536 27.811C156.105 28.5155 155.532 29.054 154.817 29.4263C154.112 29.8088 153.157 30 151.952 30C150.776 30 149.895 29.8692 149.307 29.6075C148.719 29.3458 148.425 28.8678 148.425 28.1733C148.425 27.7003 148.562 27.333 148.837 27.0713C149.121 26.8197 149.537 26.6939 150.086 26.6939C150.301 26.6939 150.512 26.7241 150.718 26.7845C150.972 26.8449 151.193 26.8751 151.379 26.8751C151.839 26.8751 152.202 26.8046 152.466 26.6637C152.731 26.5228 152.966 26.2762 153.171 25.924C153.387 25.5818 153.632 25.0736 153.906 24.3993Z" fill="black"/>
<path d="M180.576 21.0026L179.547 18.2249H170.789L169.761 21.063C169.359 22.17 169.016 22.9198 168.732 23.3123C168.448 23.6948 167.983 23.886 167.336 23.886C166.788 23.886 166.303 23.6797 165.882 23.267C165.46 22.8544 165.25 22.3864 165.25 21.8631C165.25 21.5612 165.299 21.2492 165.397 20.9271C165.495 20.6051 165.656 20.1572 165.882 19.5835L171.392 5.21187C171.549 4.79924 171.735 4.30609 171.95 3.73243C172.176 3.14871 172.411 2.66563 172.656 2.28319C172.91 1.90075 173.238 1.59379 173.64 1.36231C174.051 1.12077 174.556 1 175.153 1C175.761 1 176.265 1.12077 176.667 1.36231C177.078 1.59379 177.407 1.89571 177.651 2.26809C177.906 2.64047 178.117 3.04303 178.283 3.47579C178.46 3.89849 178.68 4.46712 178.944 5.18168L184.572 19.4628C185.013 20.5497 185.233 21.3398 185.233 21.8329C185.233 22.3462 185.023 22.8192 184.602 23.252C184.19 23.6746 183.691 23.886 183.103 23.886C182.76 23.886 182.466 23.8206 182.221 23.6897C181.976 23.569 181.771 23.4029 181.604 23.1916C181.438 22.9702 181.256 22.638 181.06 22.1952C180.874 21.7423 180.713 21.3448 180.576 21.0026ZM171.936 14.8584H178.371L175.124 5.72514L171.936 14.8584Z" fill="black"/>
<path d="M188.172 21.38V3.50599C188.172 2.68072 188.349 2.05674 188.701 1.63404C189.064 1.21135 189.549 1 190.156 1C190.763 1 191.253 1.21135 191.625 1.63404C191.998 2.04668 192.184 2.67066 192.184 3.50599V21.38C192.184 22.2153 191.993 22.8444 191.611 23.267C191.238 23.6797 190.753 23.886 190.156 23.886C189.568 23.886 189.088 23.6696 188.716 23.2369C188.353 22.8041 188.172 22.1851 188.172 21.38Z" fill="black"/>
<path d="M207.539 16.519H199.692C199.702 17.455 199.883 18.2802 200.236 18.9948C200.598 19.7094 201.073 20.2478 201.661 20.6101C202.259 20.9724 202.915 21.1536 203.63 21.1536C204.11 21.1536 204.546 21.0982 204.938 20.9875C205.34 20.8667 205.727 20.6856 206.099 20.444C206.471 20.1924 206.814 19.9257 207.127 19.6439C207.441 19.3621 207.847 18.9797 208.347 18.4966C208.553 18.3155 208.847 18.2249 209.229 18.2249C209.64 18.2249 209.973 18.3406 210.228 18.5721C210.482 18.8036 210.61 19.1307 210.61 19.5534C210.61 19.9257 210.468 20.3635 210.184 20.8667C209.9 21.3599 209.469 21.8379 208.891 22.3009C208.322 22.7538 207.602 23.1312 206.731 23.4331C205.869 23.735 204.874 23.886 203.748 23.886C201.171 23.886 199.168 23.1312 197.738 21.6216C196.308 20.1119 195.593 18.0639 195.593 15.4774C195.593 14.2596 195.769 13.1324 196.122 12.0958C196.474 11.0491 196.989 10.1534 197.664 9.40864C198.34 8.66389 199.173 8.09526 200.162 7.70276C201.152 7.30019 202.249 7.09891 203.454 7.09891C205.021 7.09891 206.363 7.44109 207.48 8.12546C208.607 8.79976 209.449 9.67534 210.007 10.7522C210.566 11.8291 210.845 12.9261 210.845 14.0432C210.845 15.0798 210.556 15.7541 209.978 16.0661C209.4 16.368 208.587 16.519 207.539 16.519ZM199.692 14.1791H206.966C206.868 12.7701 206.496 11.7184 205.849 11.0239C205.212 10.3195 204.37 9.9672 203.322 9.9672C202.322 9.9672 201.5 10.3245 200.853 11.039C200.216 11.7435 199.829 12.7902 199.692 14.1791Z" fill="black"/>
<path d="M218.221 17.9381V21.38C218.221 22.2153 218.03 22.8444 217.648 23.267C217.266 23.6797 216.781 23.886 216.193 23.886C215.616 23.886 215.14 23.6746 214.768 23.252C214.396 22.8293 214.21 22.2053 214.21 21.38V9.90682C214.21 8.05501 214.861 7.1291 216.164 7.1291C216.83 7.1291 217.31 7.34548 217.604 7.77824C217.898 8.211 218.06 8.85008 218.089 9.69547C218.569 8.85008 219.059 8.211 219.558 7.77824C220.068 7.34548 220.744 7.1291 221.586 7.1291C222.429 7.1291 223.247 7.34548 224.04 7.77824C224.833 8.211 225.23 8.78466 225.23 9.49922C225.23 10.0024 225.059 10.4201 224.716 10.7522C224.383 11.0743 224.02 11.2353 223.629 11.2353C223.482 11.2353 223.124 11.1447 222.556 10.9636C221.998 10.7723 221.503 10.6767 221.072 10.6767C220.484 10.6767 220.004 10.8378 219.632 11.1598C219.26 11.4718 218.971 11.9398 218.765 12.5638C218.559 13.1877 218.417 13.9325 218.339 14.798C218.26 15.6535 218.221 16.7002 218.221 17.9381Z" fill="black"/>
<path d="M228.037 7.49141H228.478V5.01562C228.478 4.35138 228.492 3.83307 228.522 3.4607C228.561 3.07826 228.659 2.75117 228.816 2.47944C228.972 2.19764 229.198 1.9712 229.491 1.8001C229.785 1.61895 230.113 1.52837 230.476 1.52837C230.985 1.52837 231.446 1.72462 231.857 2.11713C232.131 2.3788 232.303 2.70085 232.371 3.08329C232.45 3.45567 232.489 3.98907 232.489 4.6835V7.49141H233.958C234.527 7.49141 234.958 7.63231 235.251 7.91411C235.555 8.18584 235.707 8.53809 235.707 8.97085C235.707 9.52438 235.491 9.91185 235.06 10.1333C234.639 10.3547 234.032 10.4654 233.238 10.4654H232.489V18.0437C232.489 18.6878 232.509 19.186 232.548 19.5383C232.597 19.8804 232.714 20.1622 232.9 20.3837C233.096 20.595 233.41 20.7007 233.841 20.7007C234.076 20.7007 234.394 20.6604 234.796 20.5799C235.198 20.4893 235.511 20.444 235.736 20.444C236.06 20.444 236.349 20.5799 236.603 20.8516C236.868 21.1133 237 21.4404 237 21.8329C237 22.4971 236.647 23.0054 235.942 23.3576C235.237 23.7099 234.223 23.886 232.9 23.886C231.647 23.886 230.696 23.6696 230.05 23.2369C229.403 22.8041 228.977 22.2053 228.771 21.4404C228.576 20.6755 228.478 19.654 228.478 18.3758V10.4654H227.949C227.371 10.4654 226.93 10.3245 226.626 10.0427C226.322 9.76089 226.171 9.40361 226.171 8.97085C226.171 8.53809 226.327 8.18584 226.641 7.91411C226.964 7.63231 227.429 7.49141 228.037 7.49141Z" fill="black"/>
<path d="M55 33H56.3233V38.4721H56.3527C56.5193 38.0816 56.8085 37.7681 57.2201 37.5318C57.6318 37.2852 58.1072 37.1618 58.6463 37.1618C58.9796 37.1618 59.2981 37.2184 59.602 37.3314C59.9157 37.4342 60.1852 37.5986 60.4106 37.8247C60.6459 38.0507 60.8321 38.3436 60.9694 38.7033C61.1066 39.0527 61.1752 39.4688 61.1752 39.9518V44.6532H59.8519V40.3372C59.8519 39.9981 59.8078 39.7103 59.7196 39.474C59.6314 39.2274 59.5138 39.0321 59.3667 38.8882C59.2197 38.7341 59.0482 38.6262 58.8521 38.5645C58.6659 38.4926 58.4699 38.4566 58.264 38.4566C57.9896 38.4566 57.7347 38.5029 57.4995 38.5954C57.2642 38.6879 57.0584 38.8369 56.882 39.0424C56.7055 39.2376 56.5683 39.4894 56.4703 39.7977C56.3723 40.106 56.3233 40.4708 56.3233 40.8921V44.6532H55V33Z" fill="black"/>
<path d="M64.1696 41.5087C64.1696 41.8272 64.2334 42.1201 64.3608 42.3873C64.498 42.6442 64.6744 42.8651 64.8901 43.0501C65.1057 43.2351 65.3557 43.3789 65.6399 43.4817C65.9242 43.5845 66.2182 43.6358 66.5221 43.6358C66.9338 43.6358 67.2915 43.5382 67.5954 43.343C67.8993 43.1374 68.1786 42.8703 68.4335 42.5414L69.4333 43.343C68.6981 44.3398 67.6689 44.8382 66.3457 44.8382C65.7968 44.8382 65.2969 44.7405 64.846 44.5453C64.4049 44.35 64.0275 44.0829 63.7139 43.7437C63.41 43.3943 63.1747 42.9884 63.0081 42.526C62.8415 42.0533 62.7582 41.5446 62.7582 41C62.7582 40.4554 62.8464 39.9518 63.0228 39.4894C63.2091 39.0167 63.459 38.6108 63.7727 38.2717C64.0961 37.9223 64.4784 37.65 64.9195 37.4547C65.3606 37.2595 65.8409 37.1618 66.3604 37.1618C66.9779 37.1618 67.4974 37.2749 67.9189 37.501C68.3502 37.727 68.703 38.025 68.9775 38.395C69.2519 38.7547 69.448 39.1657 69.5656 39.6281C69.693 40.0803 69.7567 40.5427 69.7567 41.0154V41.5087H64.1696ZM68.3452 40.3988C68.3354 40.0906 68.2864 39.808 68.1982 39.5511C68.1198 39.2942 67.9973 39.0732 67.8306 38.8882C67.664 38.693 67.4533 38.544 67.1984 38.4412C66.9534 38.3282 66.6642 38.2717 66.331 38.2717C66.0075 38.2717 65.7085 38.3385 65.4341 38.4721C65.1694 38.5954 64.944 38.7598 64.7578 38.9653C64.5715 39.1708 64.4245 39.4021 64.3167 39.659C64.2186 39.9056 64.1696 40.1522 64.1696 40.3988H68.3452Z" fill="black"/>
<path d="M71.4426 33H72.7659V44.6532H71.4426V33Z" fill="black"/>
<path d="M74.8718 37.3468H76.1951V38.395H76.2245C76.4793 38.0045 76.8273 37.7013 77.2684 37.4855C77.7193 37.2697 78.18 37.1618 78.6505 37.1618C79.1896 37.1618 79.6748 37.2595 80.106 37.4547C80.5471 37.65 80.9196 37.9223 81.2235 38.2717C81.5371 38.6211 81.7773 39.0321 81.9439 39.5048C82.1105 39.9672 82.1938 40.4656 82.1938 41C82.1938 41.5446 82.1105 42.0533 81.9439 42.526C81.7773 42.9884 81.5371 43.3943 81.2235 43.7437C80.9196 44.0829 80.5471 44.35 80.106 44.5453C79.6748 44.7405 79.1896 44.8382 78.6505 44.8382C78.1506 44.8382 77.6801 44.7303 77.239 44.5145C76.7979 44.2884 76.4597 43.9852 76.2245 43.605H76.1951V49H74.8718V37.3468ZM78.4887 38.4566C78.1359 38.4566 77.8173 38.5234 77.533 38.657C77.2488 38.7803 77.0086 38.955 76.8126 39.1811C76.6166 39.3969 76.4646 39.6641 76.3568 39.9827C76.249 40.2909 76.1951 40.6301 76.1951 41C76.1951 41.3699 76.249 41.7142 76.3568 42.0328C76.4646 42.341 76.6166 42.6082 76.8126 42.8343C77.0086 43.0501 77.2488 43.2248 77.533 43.3584C77.8173 43.4817 78.1359 43.5434 78.4887 43.5434C78.8416 43.5434 79.1602 43.4817 79.4444 43.3584C79.7287 43.2248 79.9688 43.0501 80.1648 42.8343C80.3609 42.6082 80.5128 42.341 80.6206 42.0328C80.7285 41.7142 80.7824 41.3699 80.7824 41C80.7824 40.6301 80.7285 40.2909 80.6206 39.9827C80.5128 39.6641 80.3609 39.3969 80.1648 39.1811C79.9688 38.955 79.7287 38.7803 79.4444 38.657C79.1602 38.5234 78.8416 38.4566 78.4887 38.4566Z" fill="black"/>
<path d="M88.0551 37.3468H89.3784V44.6532H88.0551V37.3468ZM87.7464 34.7264C87.7464 34.4489 87.8395 34.2126 88.0257 34.0173C88.2217 33.8118 88.4521 33.7091 88.7167 33.7091C88.9814 33.7091 89.2068 33.8118 89.3931 34.0173C89.5891 34.2126 89.6871 34.4489 89.6871 34.7264C89.6871 35.0039 89.5891 35.2453 89.3931 35.4509C89.2068 35.6461 88.9814 35.7437 88.7167 35.7437C88.4521 35.7437 88.2217 35.6461 88.0257 35.4509C87.8395 35.2453 87.7464 35.0039 87.7464 34.7264Z" fill="black"/>
<path d="M91.4843 37.3468H92.8076V38.4721H92.837C93.0036 38.0816 93.2928 37.7681 93.7045 37.5318C94.1161 37.2852 94.5915 37.1618 95.1306 37.1618C95.4639 37.1618 95.7825 37.2184 96.0863 37.3314C96.4 37.4342 96.6695 37.5986 96.895 37.8247C97.1302 38.0507 97.3165 38.3436 97.4537 38.7033C97.5909 39.0527 97.6595 39.4688 97.6595 39.9518V44.6532H96.3363V40.3372C96.3363 39.9981 96.2922 39.7103 96.2039 39.474C96.1157 39.2274 95.9981 39.0321 95.8511 38.8882C95.704 38.7341 95.5325 38.6262 95.3365 38.5645C95.1502 38.4926 94.9542 38.4566 94.7484 38.4566C94.4739 38.4566 94.2191 38.5029 93.9838 38.5954C93.7486 38.6879 93.5427 38.8369 93.3663 39.0424C93.1899 39.2376 93.0526 39.4894 92.9546 39.7977C92.8566 40.106 92.8076 40.4708 92.8076 40.8921V44.6532H91.4843V37.3468Z" fill="black"/>
<path d="M106.638 44.6532H105.315V43.605H105.285C105.031 43.9955 104.678 44.2987 104.227 44.5145C103.786 44.7303 103.33 44.8382 102.859 44.8382C102.32 44.8382 101.83 44.7405 101.389 44.5453C100.958 44.35 100.585 44.0777 100.272 43.7283C99.9678 43.3789 99.7326 42.973 99.566 42.5106C99.3993 42.0482 99.316 41.5446 99.316 41C99.316 40.4554 99.3993 39.9518 99.566 39.4894C99.7326 39.0167 99.9678 38.6108 100.272 38.2717C100.585 37.9223 100.958 37.65 101.389 37.4547C101.83 37.2595 102.32 37.1618 102.859 37.1618C103.359 37.1618 103.83 37.2749 104.271 37.501C104.712 37.7168 105.05 38.0148 105.285 38.395H105.315V33H106.638V44.6532ZM103.021 43.5434C103.374 43.5434 103.693 43.4817 103.977 43.3584C104.261 43.2248 104.501 43.0501 104.697 42.8343C104.893 42.6082 105.045 42.341 105.153 42.0328C105.261 41.7142 105.315 41.3699 105.315 41C105.315 40.6301 105.261 40.2909 105.153 39.9827C105.045 39.6641 104.893 39.3969 104.697 39.1811C104.501 38.955 104.261 38.7803 103.977 38.657C103.693 38.5234 103.374 38.4566 103.021 38.4566C102.668 38.4566 102.35 38.5234 102.065 38.657C101.781 38.7803 101.541 38.955 101.345 39.1811C101.149 39.3969 100.997 39.6641 100.889 39.9827C100.781 40.2909 100.727 40.6301 100.727 41C100.727 41.3699 100.781 41.7142 100.889 42.0328C100.997 42.341 101.149 42.6082 101.345 42.8343C101.541 43.0501 101.781 43.2248 102.065 43.3584C102.35 43.4817 102.668 43.5434 103.021 43.5434Z" fill="black"/>
<path d="M108.745 37.3468H110.069V44.6532H108.745V37.3468ZM108.437 34.7264C108.437 34.4489 108.53 34.2126 108.716 34.0173C108.912 33.8118 109.142 33.7091 109.407 33.7091C109.672 33.7091 109.897 33.8118 110.083 34.0173C110.279 34.2126 110.377 34.4489 110.377 34.7264C110.377 35.0039 110.279 35.2453 110.083 35.4509C109.897 35.6461 109.672 35.7437 109.407 35.7437C109.142 35.7437 108.912 35.6461 108.716 35.4509C108.53 35.2453 108.437 35.0039 108.437 34.7264Z" fill="black"/>
<path d="M111.336 37.3468H112.866L114.953 42.9422L116.953 37.3468H118.364L115.63 44.6532H114.174L111.336 37.3468Z" fill="black"/>
<path d="M119.629 37.3468H120.952V44.6532H119.629V37.3468ZM119.32 34.7264C119.32 34.4489 119.413 34.2126 119.6 34.0173C119.796 33.8118 120.026 33.7091 120.291 33.7091C120.555 33.7091 120.781 33.8118 120.967 34.0173C121.163 34.2126 121.261 34.4489 121.261 34.7264C121.261 35.0039 121.163 35.2453 120.967 35.4509C120.781 35.6461 120.555 35.7437 120.291 35.7437C120.026 35.7437 119.796 35.6461 119.6 35.4509C119.413 35.2453 119.32 35.0039 119.32 34.7264Z" fill="black"/>
<path d="M130.042 44.6532H128.719V43.605H128.689C128.434 43.9955 128.082 44.2987 127.631 44.5145C127.19 44.7303 126.734 44.8382 126.263 44.8382C125.724 44.8382 125.234 44.7405 124.793 44.5453C124.362 44.35 123.989 44.0777 123.676 43.7283C123.372 43.3789 123.137 42.973 122.97 42.5106C122.803 42.0482 122.72 41.5446 122.72 41C122.72 40.4554 122.803 39.9518 122.97 39.4894C123.137 39.0167 123.372 38.6108 123.676 38.2717C123.989 37.9223 124.362 37.65 124.793 37.4547C125.234 37.2595 125.724 37.1618 126.263 37.1618C126.763 37.1618 127.234 37.2749 127.675 37.501C128.116 37.7168 128.454 38.0148 128.689 38.395H128.719V33H130.042V44.6532ZM126.425 43.5434C126.778 43.5434 127.097 43.4817 127.381 43.3584C127.665 43.2248 127.905 43.0501 128.101 42.8343C128.297 42.6082 128.449 42.341 128.557 42.0328C128.665 41.7142 128.719 41.3699 128.719 41C128.719 40.6301 128.665 40.2909 128.557 39.9827C128.449 39.6641 128.297 39.3969 128.101 39.1811C127.905 38.955 127.665 38.7803 127.381 38.657C127.097 38.5234 126.778 38.4566 126.425 38.4566C126.072 38.4566 125.754 38.5234 125.469 38.657C125.185 38.7803 124.945 38.955 124.749 39.1811C124.553 39.3969 124.401 39.6641 124.293 39.9827C124.185 40.2909 124.131 40.6301 124.131 41C124.131 41.3699 124.185 41.7142 124.293 42.0328C124.401 42.341 124.553 42.6082 124.749 42.8343C124.945 43.0501 125.185 43.2248 125.469 43.3584C125.754 43.4817 126.072 43.5434 126.425 43.5434Z" fill="black"/>
<path d="M138.222 44.6532H136.898V43.5279H136.869C136.702 43.9184 136.413 44.237 136.001 44.4836C135.59 44.72 135.114 44.8382 134.575 44.8382C134.232 44.8382 133.909 44.7816 133.605 44.6686C133.301 44.5658 133.031 44.4014 132.796 44.1753C132.571 43.9493 132.389 43.6615 132.252 43.3121C132.115 42.9525 132.046 42.5311 132.046 42.0482V37.3468H133.37V41.6628C133.37 42.0019 133.414 42.2948 133.502 42.5414C133.59 42.7778 133.708 42.973 133.855 43.1272C134.002 43.271 134.168 43.3789 134.355 43.4509C134.551 43.5125 134.752 43.5434 134.958 43.5434C135.232 43.5434 135.487 43.4971 135.722 43.4046C135.957 43.3121 136.163 43.1683 136.34 42.973C136.516 42.7675 136.653 42.5106 136.751 42.2023C136.849 41.894 136.898 41.5292 136.898 41.1079V37.3468H138.222V44.6532Z" fill="black"/>
<path d="M140.246 38.2408C140.618 37.8812 141.049 37.614 141.539 37.4393C142.03 37.2543 142.52 37.1618 143.01 37.1618C143.519 37.1618 143.956 37.2286 144.318 37.3622C144.691 37.4958 144.995 37.6757 145.23 37.9017C145.465 38.1278 145.637 38.3899 145.745 38.6879C145.862 38.9756 145.921 39.2787 145.921 39.5973V43.3276C145.921 43.5845 145.926 43.8208 145.936 44.0366C145.945 44.2524 145.96 44.4579 145.98 44.6532H144.804C144.774 44.2832 144.759 43.9133 144.759 43.5434H144.73C144.436 44.0161 144.088 44.35 143.686 44.5453C143.284 44.7405 142.819 44.8382 142.289 44.8382C141.966 44.8382 141.657 44.7919 141.363 44.6994C141.069 44.6069 140.809 44.4682 140.584 44.2832C140.368 44.0983 140.197 43.8722 140.069 43.605C139.942 43.3276 139.878 43.009 139.878 42.6493C139.878 42.1766 139.976 41.781 140.172 41.4624C140.378 41.1439 140.652 40.887 140.995 40.6917C141.348 40.4862 141.755 40.3423 142.216 40.2601C142.686 40.1676 143.186 40.1214 143.716 40.1214H144.686V39.8131C144.686 39.6281 144.652 39.4432 144.583 39.2582C144.514 39.0732 144.411 38.9088 144.274 38.7649C144.137 38.6108 143.965 38.4926 143.76 38.4104C143.554 38.3179 143.309 38.2717 143.024 38.2717C142.77 38.2717 142.544 38.2974 142.348 38.3487C142.162 38.4001 141.99 38.4669 141.834 38.5491C141.677 38.6211 141.535 38.7084 141.407 38.8112C141.28 38.9139 141.157 39.0116 141.04 39.104L140.246 38.2408ZM143.98 41.1387C143.667 41.1387 143.343 41.1593 143.01 41.2004C142.686 41.2312 142.387 41.298 142.113 41.4008C141.848 41.5035 141.628 41.6474 141.451 41.8324C141.285 42.0173 141.201 42.2537 141.201 42.5414C141.201 42.9627 141.334 43.2659 141.598 43.4509C141.873 43.6358 142.24 43.7283 142.701 43.7283C143.064 43.7283 143.372 43.6667 143.627 43.5434C143.882 43.4098 144.088 43.2402 144.245 43.0347C144.402 42.8292 144.514 42.6031 144.583 42.3565C144.652 42.0996 144.686 41.8478 144.686 41.6012V41.1387H143.98Z" fill="black"/>
<path d="M147.943 33H149.267V44.6532H147.943V33Z" fill="black"/>
<path d="M155.078 39.1811C154.921 38.9756 154.725 38.806 154.49 38.6724C154.264 38.5286 153.985 38.4566 153.652 38.4566C153.338 38.4566 153.063 38.5286 152.828 38.6724C152.603 38.806 152.49 39.0064 152.49 39.2736C152.49 39.4894 152.554 39.6641 152.681 39.7977C152.818 39.9313 152.975 40.0392 153.152 40.1214C153.338 40.2036 153.534 40.2653 153.74 40.3064C153.946 40.3475 154.122 40.3834 154.269 40.4143C154.553 40.4862 154.818 40.5735 155.063 40.6763C155.318 40.7791 155.534 40.9127 155.71 41.0771C155.896 41.2415 156.038 41.4419 156.136 41.6782C156.244 41.9146 156.298 42.2023 156.298 42.5414C156.298 42.9525 156.215 43.307 156.048 43.605C155.881 43.8927 155.666 44.1291 155.401 44.3141C155.137 44.499 154.833 44.6326 154.49 44.7148C154.156 44.797 153.818 44.8382 153.475 44.8382C152.897 44.8382 152.387 44.7457 151.946 44.5607C151.515 44.3757 151.128 44.0366 150.784 43.5434L151.784 42.6802C152 42.9062 152.24 43.1066 152.505 43.2813C152.769 43.456 153.093 43.5434 153.475 43.5434C153.642 43.5434 153.808 43.5279 153.975 43.4971C154.151 43.456 154.303 43.3995 154.431 43.3276C154.568 43.2453 154.676 43.1477 154.754 43.0347C154.842 42.9114 154.887 42.7726 154.887 42.6185C154.887 42.413 154.823 42.2434 154.695 42.1098C154.578 41.9762 154.431 41.8735 154.254 41.8015C154.088 41.7193 153.906 41.6577 153.71 41.6166C153.524 41.5652 153.357 41.5241 153.21 41.4933C152.926 41.4213 152.657 41.3391 152.402 41.2466C152.147 41.1541 151.922 41.0308 151.725 40.8767C151.529 40.7225 151.373 40.5273 151.255 40.2909C151.137 40.0546 151.079 39.7617 151.079 39.4123C151.079 39.0321 151.152 38.7033 151.299 38.4258C151.456 38.1381 151.657 37.9017 151.902 37.7168C152.157 37.5318 152.441 37.3931 152.755 37.3006C153.078 37.2081 153.402 37.1618 153.725 37.1618C154.196 37.1618 154.646 37.2543 155.078 37.4393C155.509 37.6243 155.852 37.9326 156.107 38.3642L155.078 39.1811Z" fill="black"/>
<path d="M162.027 38.2408C162.4 37.8812 162.831 37.614 163.321 37.4393C163.811 37.2543 164.301 37.1618 164.791 37.1618C165.301 37.1618 165.737 37.2286 166.1 37.3622C166.472 37.4958 166.776 37.6757 167.011 37.9017C167.247 38.1278 167.418 38.3899 167.526 38.6879C167.644 38.9756 167.702 39.2787 167.702 39.5973V43.3276C167.702 43.5845 167.707 43.8208 167.717 44.0366C167.727 44.2524 167.742 44.4579 167.761 44.6532H166.585C166.556 44.2832 166.541 43.9133 166.541 43.5434H166.511C166.217 44.0161 165.869 44.35 165.468 44.5453C165.066 44.7405 164.6 44.8382 164.071 44.8382C163.747 44.8382 163.439 44.7919 163.145 44.6994C162.85 44.6069 162.591 44.4682 162.365 44.2832C162.15 44.0983 161.978 43.8722 161.851 43.605C161.723 43.3276 161.66 43.009 161.66 42.6493C161.66 42.1766 161.758 41.781 161.954 41.4624C162.159 41.1439 162.434 40.887 162.777 40.6917C163.13 40.4862 163.537 40.3423 163.997 40.2601C164.468 40.1676 164.968 40.1214 165.497 40.1214H166.467V39.8131C166.467 39.6281 166.433 39.4432 166.364 39.2582C166.296 39.0732 166.193 38.9088 166.056 38.7649C165.918 38.6108 165.747 38.4926 165.541 38.4104C165.335 38.3179 165.09 38.2717 164.806 38.2717C164.551 38.2717 164.326 38.2974 164.13 38.3487C163.943 38.4001 163.772 38.4669 163.615 38.5491C163.458 38.6211 163.316 38.7084 163.189 38.8112C163.061 38.9139 162.939 39.0116 162.821 39.104L162.027 38.2408ZM165.762 41.1387C165.448 41.1387 165.125 41.1593 164.791 41.2004C164.468 41.2312 164.169 41.298 163.894 41.4008C163.63 41.5035 163.409 41.6474 163.233 41.8324C163.066 42.0173 162.983 42.2537 162.983 42.5414C162.983 42.9627 163.115 43.2659 163.38 43.4509C163.654 43.6358 164.022 43.7283 164.482 43.7283C164.845 43.7283 165.154 43.6667 165.409 43.5434C165.664 43.4098 165.869 43.2402 166.026 43.0347C166.183 42.8292 166.296 42.6031 166.364 42.3565C166.433 42.0996 166.467 41.8478 166.467 41.6012V41.1387H165.762Z" fill="black"/>
<path d="M174.606 39.289C174.361 39.0218 174.101 38.8215 173.827 38.6879C173.562 38.544 173.244 38.4721 172.871 38.4721C172.509 38.4721 172.19 38.544 171.916 38.6879C171.651 38.8215 171.425 39.0116 171.239 39.2582C171.063 39.4945 170.926 39.772 170.828 40.0906C170.739 40.3988 170.695 40.7225 170.695 41.0617C170.695 41.4008 170.749 41.7245 170.857 42.0328C170.965 42.3308 171.117 42.5928 171.313 42.8189C171.509 43.045 171.744 43.2248 172.018 43.3584C172.293 43.4817 172.602 43.5434 172.945 43.5434C173.317 43.5434 173.636 43.4766 173.9 43.343C174.165 43.1991 174.41 42.9936 174.636 42.7264L175.577 43.7129C175.234 44.1137 174.832 44.4014 174.371 44.5761C173.92 44.7508 173.44 44.8382 172.93 44.8382C172.391 44.8382 171.896 44.7457 171.445 44.5607C171.004 44.3757 170.622 44.1188 170.298 43.79C169.975 43.4509 169.725 43.0501 169.548 42.5877C169.372 42.115 169.284 41.596 169.284 41.0308C169.284 40.4656 169.372 39.9467 169.548 39.474C169.725 39.0013 169.97 38.5954 170.284 38.2563C170.607 37.9171 170.989 37.6551 171.43 37.4701C171.881 37.2749 172.381 37.1773 172.93 37.1773C173.44 37.1773 173.925 37.2749 174.386 37.4701C174.856 37.6551 175.263 37.9428 175.606 38.3333L174.606 39.289Z" fill="black"/>
<path d="M176.715 33H178.038V38.4721H178.068C178.234 38.0816 178.523 37.7681 178.935 37.5318C179.347 37.2852 179.822 37.1618 180.361 37.1618C180.694 37.1618 181.013 37.2184 181.317 37.3314C181.631 37.4342 181.9 37.5986 182.126 37.8247C182.361 38.0507 182.547 38.3436 182.684 38.7033C182.821 39.0527 182.89 39.4688 182.89 39.9518V44.6532H181.567V40.3372C181.567 39.9981 181.523 39.7103 181.435 39.474C181.346 39.2274 181.229 39.0321 181.082 38.8882C180.935 38.7341 180.763 38.6262 180.567 38.5645C180.381 38.4926 180.185 38.4566 179.979 38.4566C179.704 38.4566 179.45 38.5029 179.214 38.5954C178.979 38.6879 178.773 38.8369 178.597 39.0424C178.42 39.2376 178.283 39.4894 178.185 39.7977C178.087 40.106 178.038 40.4708 178.038 40.8921V44.6532H176.715V33Z" fill="black"/>
<path d="M184.988 37.3468H186.311V44.6532H184.988V37.3468ZM184.679 34.7264C184.679 34.4489 184.772 34.2126 184.958 34.0173C185.154 33.8118 185.385 33.7091 185.649 33.7091C185.914 33.7091 186.139 33.8118 186.326 34.0173C186.522 34.2126 186.62 34.4489 186.62 34.7264C186.62 35.0039 186.522 35.2453 186.326 35.4509C186.139 35.6461 185.914 35.7437 185.649 35.7437C185.385 35.7437 185.154 35.6461 184.958 35.4509C184.772 35.2453 184.679 35.0039 184.679 34.7264Z" fill="black"/>
<path d="M189.417 41.5087C189.417 41.8272 189.48 42.1201 189.608 42.3873C189.745 42.6442 189.921 42.8651 190.137 43.0501C190.353 43.2351 190.603 43.3789 190.887 43.4817C191.171 43.5845 191.465 43.6358 191.769 43.6358C192.181 43.6358 192.539 43.5382 192.842 43.343C193.146 43.1374 193.426 42.8703 193.681 42.5414L194.68 43.343C193.945 44.3398 192.916 44.8382 191.593 44.8382C191.044 44.8382 190.544 44.7405 190.093 44.5453C189.652 44.35 189.275 44.0829 188.961 43.7437C188.657 43.3943 188.422 42.9884 188.255 42.526C188.089 42.0533 188.005 41.5446 188.005 41C188.005 40.4554 188.093 39.9518 188.27 39.4894C188.456 39.0167 188.706 38.6108 189.02 38.2717C189.343 37.9223 189.725 37.65 190.167 37.4547C190.608 37.2595 191.088 37.1618 191.607 37.1618C192.225 37.1618 192.744 37.2749 193.166 37.501C193.597 37.727 193.95 38.025 194.225 38.395C194.499 38.7547 194.695 39.1657 194.813 39.6281C194.94 40.0803 195.004 40.5427 195.004 41.0154V41.5087H189.417ZM193.592 40.3988C193.582 40.0906 193.533 39.808 193.445 39.5511C193.367 39.2942 193.244 39.0732 193.078 38.8882C192.911 38.693 192.7 38.544 192.445 38.4412C192.2 38.3282 191.911 38.2717 191.578 38.2717C191.255 38.2717 190.956 38.3385 190.681 38.4721C190.416 38.5954 190.191 38.7598 190.005 38.9653C189.819 39.1708 189.672 39.4021 189.564 39.659C189.466 39.9056 189.417 40.1522 189.417 40.3988H193.592Z" fill="black"/>
<path d="M195.749 37.3468H197.278L199.366 42.9422L201.365 37.3468H202.777L200.042 44.6532H198.586L195.749 37.3468Z" fill="black"/>
<path d="M204.938 41.5087C204.938 41.8272 205.002 42.1201 205.129 42.3873C205.266 42.6442 205.443 42.8651 205.658 43.0501C205.874 43.2351 206.124 43.3789 206.408 43.4817C206.692 43.5845 206.987 43.6358 207.29 43.6358C207.702 43.6358 208.06 43.5382 208.364 43.343C208.668 43.1374 208.947 42.8703 209.202 42.5414L210.202 43.343C209.466 44.3398 208.437 44.8382 207.114 44.8382C206.565 44.8382 206.065 44.7405 205.614 44.5453C205.173 44.35 204.796 44.0829 204.482 43.7437C204.178 43.3943 203.943 42.9884 203.776 42.526C203.61 42.0533 203.526 41.5446 203.526 41C203.526 40.4554 203.615 39.9518 203.791 39.4894C203.977 39.0167 204.227 38.6108 204.541 38.2717C204.864 37.9223 205.247 37.65 205.688 37.4547C206.129 37.2595 206.609 37.1618 207.129 37.1618C207.746 37.1618 208.266 37.2749 208.687 37.501C209.118 37.727 209.471 38.025 209.746 38.395C210.02 38.7547 210.216 39.1657 210.334 39.6281C210.461 40.0803 210.525 40.5427 210.525 41.0154V41.5087H204.938ZM209.114 40.3988C209.104 40.0906 209.055 39.808 208.967 39.5511C208.888 39.2942 208.766 39.0732 208.599 38.8882C208.432 38.693 208.222 38.544 207.967 38.4412C207.722 38.3282 207.433 38.2717 207.099 38.2717C206.776 38.2717 206.477 38.3385 206.202 38.4721C205.938 38.5954 205.712 38.7598 205.526 38.9653C205.34 39.1708 205.193 39.4021 205.085 39.659C204.987 39.9056 204.938 40.1522 204.938 40.3988H209.114Z" fill="black"/>
<path d="M223.184 44.5915C223.184 45.1464 223.091 45.65 222.905 46.1021C222.728 46.5645 222.473 46.9602 222.14 47.289C221.807 47.6281 221.405 47.8902 220.934 48.0751C220.464 48.2601 219.944 48.3526 219.376 48.3526C218.709 48.3526 218.097 48.255 217.538 48.0597C216.989 47.8645 216.465 47.5254 215.965 47.0424L216.862 45.8709C217.205 46.2614 217.577 46.5543 217.979 46.7495C218.381 46.955 218.837 47.0578 219.347 47.0578C219.837 47.0578 220.243 46.9807 220.567 46.8266C220.89 46.6827 221.145 46.4926 221.331 46.2563C221.527 46.0199 221.665 45.7476 221.743 45.4393C221.821 45.1413 221.861 44.8382 221.861 44.5299V43.4509H221.817C221.562 43.8927 221.214 44.2216 220.773 44.4374C220.341 44.6429 219.886 44.7457 219.405 44.7457C218.896 44.7457 218.42 44.6532 217.979 44.4682C217.548 44.273 217.175 44.0109 216.862 43.6821C216.548 43.343 216.303 42.9473 216.127 42.4952C215.95 42.0328 215.862 41.5344 215.862 41C215.862 40.4656 215.945 39.9672 216.112 39.5048C216.279 39.0321 216.514 38.6211 216.818 38.2717C217.131 37.9223 217.504 37.65 217.935 37.4547C218.376 37.2595 218.866 37.1618 219.405 37.1618C219.876 37.1618 220.332 37.2697 220.773 37.4855C221.224 37.7013 221.576 38.0045 221.831 38.395H221.861V37.3468H223.184V44.5915ZM219.567 38.4566C219.214 38.4566 218.896 38.5234 218.611 38.657C218.327 38.7803 218.087 38.955 217.891 39.1811C217.695 39.3969 217.543 39.6641 217.435 39.9827C217.327 40.2909 217.273 40.6301 217.273 41C217.273 41.7399 217.479 42.3359 217.891 42.7881C218.303 43.2299 218.861 43.4509 219.567 43.4509C220.273 43.4509 220.831 43.2299 221.243 42.7881C221.655 42.3359 221.861 41.7399 221.861 41C221.861 40.6301 221.807 40.2909 221.699 39.9827C221.591 39.6641 221.439 39.3969 221.243 39.1811C221.047 38.955 220.807 38.7803 220.523 38.657C220.238 38.5234 219.92 38.4566 219.567 38.4566Z" fill="black"/>
<path d="M226.262 41C226.262 41.3699 226.316 41.7142 226.423 42.0328C226.531 42.341 226.683 42.6082 226.879 42.8343C227.075 43.0501 227.315 43.2248 227.6 43.3584C227.884 43.4817 228.202 43.5434 228.555 43.5434C228.908 43.5434 229.227 43.4817 229.511 43.3584C229.795 43.2248 230.035 43.0501 230.231 42.8343C230.427 42.6082 230.579 42.341 230.687 42.0328C230.795 41.7142 230.849 41.3699 230.849 41C230.849 40.6301 230.795 40.2909 230.687 39.9827C230.579 39.6641 230.427 39.3969 230.231 39.1811C230.035 38.955 229.795 38.7803 229.511 38.657C229.227 38.5234 228.908 38.4566 228.555 38.4566C228.202 38.4566 227.884 38.5234 227.6 38.657C227.315 38.7803 227.075 38.955 226.879 39.1811C226.683 39.3969 226.531 39.6641 226.423 39.9827C226.316 40.2909 226.262 40.6301 226.262 41ZM224.85 41C224.85 40.4656 224.943 39.9672 225.13 39.5048C225.326 39.0424 225.59 38.6365 225.924 38.2871C226.257 37.9377 226.649 37.6654 227.1 37.4701C227.551 37.2646 228.036 37.1618 228.555 37.1618C229.075 37.1618 229.56 37.2646 230.011 37.4701C230.462 37.6654 230.854 37.9377 231.187 38.2871C231.52 38.6365 231.78 39.0424 231.966 39.5048C232.162 39.9672 232.26 40.4656 232.26 41C232.26 41.5344 232.162 42.0379 231.966 42.5106C231.78 42.973 231.52 43.3789 231.187 43.7283C230.854 44.0674 230.462 44.3398 230.011 44.5453C229.56 44.7405 229.075 44.8382 228.555 44.8382C228.036 44.8382 227.551 44.7405 227.1 44.5453C226.649 44.3398 226.257 44.0674 225.924 43.7283C225.59 43.3789 225.326 42.973 225.13 42.5106C224.943 42.0379 224.85 41.5344 224.85 41Z" fill="black"/>
<path d="M233.948 38.2408C234.32 37.8812 234.751 37.614 235.241 37.4393C235.732 37.2543 236.222 37.1618 236.712 37.1618C237.221 37.1618 237.658 37.2286 238.02 37.3622C238.393 37.4958 238.697 37.6757 238.932 37.9017C239.167 38.1278 239.339 38.3899 239.446 38.6879C239.564 38.9756 239.623 39.2787 239.623 39.5973V43.3276C239.623 43.5845 239.628 43.8208 239.638 44.0366C239.647 44.2524 239.662 44.4579 239.682 44.6532H238.505C238.476 44.2832 238.461 43.9133 238.461 43.5434H238.432C238.138 44.0161 237.79 44.35 237.388 44.5453C236.986 44.7405 236.521 44.8382 235.991 44.8382C235.668 44.8382 235.359 44.7919 235.065 44.6994C234.771 44.6069 234.511 44.4682 234.286 44.2832C234.07 44.0983 233.899 43.8722 233.771 43.605C233.644 43.3276 233.58 43.009 233.58 42.6493C233.58 42.1766 233.678 41.781 233.874 41.4624C234.08 41.1439 234.354 40.887 234.697 40.6917C235.05 40.4862 235.457 40.3423 235.918 40.2601C236.388 40.1676 236.888 40.1214 237.417 40.1214H238.388V39.8131C238.388 39.6281 238.354 39.4432 238.285 39.2582C238.216 39.0732 238.113 38.9088 237.976 38.7649C237.839 38.6108 237.667 38.4926 237.462 38.4104C237.256 38.3179 237.011 38.2717 236.726 38.2717C236.472 38.2717 236.246 38.2974 236.05 38.3487C235.864 38.4001 235.692 38.4669 235.535 38.5491C235.379 38.6211 235.237 38.7084 235.109 38.8112C234.982 38.9139 234.859 39.0116 234.742 39.104L233.948 38.2408ZM237.682 41.1387C237.368 41.1387 237.045 41.1593 236.712 41.2004C236.388 41.2312 236.089 41.298 235.815 41.4008C235.55 41.5035 235.33 41.6474 235.153 41.8324C234.987 42.0173 234.903 42.2537 234.903 42.5414C234.903 42.9627 235.036 43.2659 235.3 43.4509C235.575 43.6358 235.942 43.7283 236.403 43.7283C236.766 43.7283 237.074 43.6667 237.329 43.5434C237.584 43.4098 237.79 43.2402 237.947 43.0347C238.104 42.8292 238.216 42.6031 238.285 42.3565C238.354 42.0996 238.388 41.8478 238.388 41.6012V41.1387H237.682Z" fill="black"/>
<path d="M241.645 33H242.969V44.6532H241.645V33Z" fill="black"/>
<path d="M248.78 39.1811C248.623 38.9756 248.427 38.806 248.192 38.6724C247.966 38.5286 247.687 38.4566 247.353 38.4566C247.04 38.4566 246.765 38.5286 246.53 38.6724C246.305 38.806 246.192 39.0064 246.192 39.2736C246.192 39.4894 246.256 39.6641 246.383 39.7977C246.52 39.9313 246.677 40.0392 246.854 40.1214C247.04 40.2036 247.236 40.2653 247.442 40.3064C247.648 40.3475 247.824 40.3834 247.971 40.4143C248.255 40.4862 248.52 40.5735 248.765 40.6763C249.02 40.7791 249.235 40.9127 249.412 41.0771C249.598 41.2415 249.74 41.4419 249.838 41.6782C249.946 41.9146 250 42.2023 250 42.5414C250 42.9525 249.917 43.307 249.75 43.605C249.583 43.8927 249.368 44.1291 249.103 44.3141C248.838 44.499 248.535 44.6326 248.192 44.7148C247.858 44.797 247.52 44.8382 247.177 44.8382C246.599 44.8382 246.089 44.7457 245.648 44.5607C245.217 44.3757 244.829 44.0366 244.486 43.5434L245.486 42.6802C245.702 42.9062 245.942 43.1066 246.207 43.2813C246.471 43.456 246.795 43.5434 247.177 43.5434C247.344 43.5434 247.51 43.5279 247.677 43.4971C247.853 43.456 248.005 43.3995 248.133 43.3276C248.27 43.2453 248.378 43.1477 248.456 43.0347C248.544 42.9114 248.589 42.7726 248.589 42.6185C248.589 42.413 248.525 42.2434 248.397 42.1098C248.28 41.9762 248.133 41.8735 247.956 41.8015C247.79 41.7193 247.608 41.6577 247.412 41.6166C247.226 41.5652 247.059 41.5241 246.912 41.4933C246.628 41.4213 246.359 41.3391 246.104 41.2466C245.849 41.1541 245.623 41.0308 245.427 40.8767C245.231 40.7225 245.075 40.5273 244.957 40.2909C244.839 40.0546 244.78 39.7617 244.78 39.4123C244.78 39.0321 244.854 38.7033 245.001 38.4258C245.158 38.1381 245.359 37.9017 245.604 37.7168C245.859 37.5318 246.143 37.3931 246.457 37.3006C246.78 37.2081 247.104 37.1618 247.427 37.1618C247.898 37.1618 248.348 37.2543 248.78 37.4393C249.211 37.6243 249.554 37.9326 249.809 38.3642L248.78 39.1811Z" fill="black"/>
<defs>
<linearGradient id="paint0_linear" x1="34.625" y1="14.375" x2="8.48" y2="47" gradientUnits="userSpaceOnUse">
<stop stop-color="#70B0ED"/>
<stop offset="1" stop-color="#1FBFD2"/>
</linearGradient>
<linearGradient id="paint1_linear" x1="33.275" y1="15.725" x2="10.616" y2="44" gradientUnits="userSpaceOnUse">
<stop stop-color="#70B0ED"/>
<stop offset="1" stop-color="#1FBFD2"/>
</linearGradient>
<linearGradient id="paint2_linear" x1="24.5" y1="31.354" x2="24.5" y2="13" gradientUnits="userSpaceOnUse">
<stop stop-color="#0ECEA6"/>
<stop offset="0.55" stop-color="#00DDD0"/>
<stop offset="0.841" stop-color="#08D0E6"/>
<stop offset="1" stop-color="#28A6FF"/>
</linearGradient>
</defs>
</svg>
