<svg width="311" height="73" viewBox="0 0 311 73" fill="none" xmlns="http://www.w3.org/2000/svg">
<path d="M58.6396 10.4286H6.28271V62.5714H58.6396V10.4286Z" fill="url(#paint0_linear)"/>
<path d="M32.4611 59.4428C45.1841 59.4428 55.4981 49.171 55.4981 36.5C55.4981 23.829 45.1841 13.5571 32.4611 13.5571C19.7381 13.5571 9.42407 23.829 9.42407 36.5C9.42407 49.171 19.7381 59.4428 32.4611 59.4428Z" fill="url(#paint1_linear)"/>
<path fill-rule="evenodd" clip-rule="evenodd" d="M31.9376 14.4079C19.9527 14.4079 10.237 24.2989 10.237 36.5C10.237 48.7011 19.9527 58.5921 31.9376 58.5921C43.9224 58.5921 53.6381 48.7011 53.6381 36.5C53.6381 24.2989 43.9224 14.4079 31.9376 14.4079ZM8.37695 36.5C8.37695 23.2531 18.9254 12.5143 31.9376 12.5143C44.9497 12.5143 55.4982 23.2531 55.4982 36.5C55.4982 49.7469 44.9497 60.4857 31.9376 60.4857C18.9254 60.4857 8.37695 49.7469 8.37695 36.5Z" fill="white"/>
<path d="M28.3017 50.0572V40.6425H18.8484V32.3575H28.3017V22.9429H36.6207V32.3575H46.074V40.6425H36.6207V50.0572H28.3017Z" fill="url(#paint2_linear)"/>
<path fill-rule="evenodd" clip-rule="evenodd" d="M28.0287 22.9429H37.9408V32.0857H47.1211V41.9572H37.9408V51.1H28.0287V41.9572H18.8484V32.0857H28.0287V22.9429ZM29.8619 24.7685V33.9113H20.6815V40.1315H29.8619V49.2744H36.1076V40.1315H45.288V33.9113H36.1076V24.7685H29.8619Z" fill="white"/>
<path d="M72.8958 10.032H79.5095C81.2299 10.032 82.7053 10.1915 83.9358 10.5105C85.1663 10.8295 86.2828 11.4277 87.2854 12.3049C89.8944 14.538 91.199 17.9332 91.199 22.4905C91.199 23.9944 91.068 25.3673 90.8059 26.6091C90.5439 27.851 90.1394 28.9732 89.5925 29.9758C89.0457 30.967 88.345 31.8557 87.4905 32.6418C86.8183 33.2457 86.0834 33.7299 85.2859 34.0945C84.4884 34.4591 83.6282 34.7154 82.7053 34.8635C81.7939 35.0116 80.7628 35.0857 79.6121 35.0857H72.9983C72.0754 35.0857 71.3805 34.949 70.9133 34.6755C70.4462 34.3907 70.1386 33.9976 69.9905 33.4963C69.8538 32.9836 69.7854 32.3228 69.7854 31.5139V13.1423C69.7854 12.0486 70.0304 11.2568 70.5203 10.7668C71.0102 10.2769 71.802 10.032 72.8958 10.032ZM74.8611 14.0481V31.0525H78.7063C79.5494 31.0525 80.2102 31.0297 80.6887 30.9841C81.1672 30.9386 81.6628 30.8246 82.1755 30.6423C82.6882 30.46 83.1326 30.2037 83.5085 29.8733C85.2061 28.4377 86.0549 25.9654 86.0549 22.4563C86.0549 19.984 85.679 18.1326 84.927 16.9021C84.1864 15.6716 83.2693 14.8912 82.1755 14.5608C81.0818 14.219 79.7602 14.0481 78.2107 14.0481H74.8611ZM108.357 27.1731H99.2312C99.2426 28.2327 99.4534 29.1669 99.8635 29.9758C100.285 30.7847 100.838 31.3943 101.521 31.8044C102.216 32.2146 102.98 32.4197 103.811 32.4197C104.37 32.4197 104.877 32.357 105.332 32.2317C105.799 32.095 106.249 31.8899 106.682 31.6165C107.115 31.3316 107.514 31.0297 107.879 30.7107C108.243 30.3917 108.716 29.9587 109.297 29.4119C109.536 29.2068 109.878 29.1042 110.323 29.1042C110.801 29.1042 111.188 29.2353 111.485 29.4973C111.781 29.7594 111.929 30.1296 111.929 30.6082C111.929 31.0297 111.764 31.5253 111.433 32.095C111.103 32.6532 110.602 33.1944 109.929 33.7185C109.269 34.2312 108.431 34.6584 107.417 35.0002C106.415 35.342 105.258 35.5129 103.948 35.5129C100.952 35.5129 98.6217 34.6584 96.9583 32.9495C95.2948 31.2405 94.4631 28.922 94.4631 25.9939C94.4631 24.6153 94.6682 23.3393 95.0784 22.1658C95.4885 20.9809 96.0867 19.9669 96.8728 19.1238C97.6589 18.2807 98.6274 17.637 99.7781 17.1926C100.929 16.7369 102.205 16.509 103.606 16.509C105.429 16.509 106.99 16.8964 108.289 17.6711C109.599 18.4345 110.579 19.4257 111.228 20.6448C111.878 21.8639 112.202 23.1057 112.202 24.3704C112.202 25.5439 111.866 26.3072 111.194 26.6604C110.522 27.0022 109.576 27.1731 108.357 27.1731ZM99.2312 24.5242H107.691C107.577 22.9291 107.144 21.7385 106.392 20.9524C105.651 20.1549 104.671 19.7561 103.452 19.7561C102.29 19.7561 101.333 20.1606 100.581 20.9695C99.8407 21.767 99.3907 22.9519 99.2312 24.5242ZM131.172 29.4119C131.172 30.6993 130.859 31.8044 130.232 32.7273C129.606 33.6388 128.677 34.3337 127.447 34.8123C126.227 35.2794 124.741 35.5129 122.986 35.5129C121.311 35.5129 119.876 35.2566 118.679 34.7439C117.483 34.2312 116.6 33.5932 116.031 32.8298C115.461 32.0551 115.176 31.2804 115.176 30.5056C115.176 29.9929 115.358 29.5543 115.723 29.1897C116.087 28.8251 116.549 28.6428 117.107 28.6428C117.597 28.6428 117.973 28.7625 118.235 29.0017C118.497 29.241 118.748 29.5771 118.987 30.01C119.466 30.8417 120.035 31.4626 120.696 31.8728C121.368 32.283 122.28 32.488 123.43 32.488C124.365 32.488 125.128 32.283 125.72 31.8728C126.324 31.4513 126.626 30.9727 126.626 30.4373C126.626 29.6169 126.313 29.0188 125.686 28.6428C125.071 28.2668 124.051 27.908 122.627 27.5662C121.021 27.1674 119.711 26.7515 118.697 26.3186C117.694 25.8743 116.891 25.2932 116.287 24.5754C115.683 23.8577 115.381 22.9747 115.381 21.9265C115.381 20.9923 115.66 20.1093 116.219 19.2776C116.777 18.4459 117.597 17.7851 118.679 17.2952C119.773 16.7939 121.089 16.5432 122.627 16.5432C123.835 16.5432 124.917 16.6685 125.874 16.9192C126.843 17.1698 127.646 17.5059 128.284 17.9275C128.933 18.349 129.423 18.8162 129.754 19.3289C130.095 19.8416 130.266 20.3429 130.266 20.8328C130.266 21.3682 130.084 21.8069 129.719 22.1487C129.366 22.4905 128.859 22.6614 128.198 22.6614C127.72 22.6614 127.31 22.5247 126.968 22.2512C126.638 21.9778 126.256 21.5676 125.823 21.0208C125.47 20.565 125.054 20.2004 124.575 19.927C124.097 19.6536 123.448 19.5168 122.627 19.5168C121.784 19.5168 121.083 19.6991 120.525 20.0637C119.967 20.4169 119.688 20.8612 119.688 21.3967C119.688 21.8866 119.893 22.2911 120.303 22.6101C120.713 22.9177 121.266 23.1741 121.961 23.3792C122.656 23.5842 123.613 23.8349 124.832 24.1311C126.279 24.4843 127.458 24.9058 128.369 25.3958C129.292 25.8857 129.987 26.4667 130.454 27.1389C130.933 27.7997 131.172 28.5574 131.172 29.4119ZM135.376 16.9534H135.889V14.1506C135.889 13.3987 135.906 12.8119 135.94 12.3904C135.986 11.9574 136.1 11.5872 136.282 11.2795C136.464 10.9605 136.726 10.7042 137.068 10.5105C137.41 10.3054 137.792 10.2029 138.213 10.2029C138.806 10.2029 139.341 10.425 139.82 10.8694C140.139 11.1656 140.338 11.5302 140.418 11.9631C140.509 12.3847 140.554 12.9885 140.554 13.7747V16.9534H142.263C142.924 16.9534 143.426 17.1129 143.767 17.4319C144.121 17.7395 144.297 18.1383 144.297 18.6282C144.297 19.2548 144.046 19.6934 143.545 19.9441C143.055 20.1947 142.349 20.3201 141.426 20.3201H140.554V28.8992C140.554 29.6283 140.577 30.1923 140.623 30.5911C140.68 30.9784 140.816 31.2974 141.033 31.5481C141.261 31.7874 141.625 31.907 142.127 31.907C142.4 31.907 142.77 31.8614 143.238 31.7703C143.705 31.6677 144.069 31.6165 144.331 31.6165C144.707 31.6165 145.043 31.7703 145.34 32.0779C145.647 32.3741 145.801 32.7444 145.801 33.1887C145.801 33.9407 145.391 34.516 144.571 34.9148C143.75 35.3136 142.571 35.5129 141.033 35.5129C139.575 35.5129 138.469 35.268 137.718 34.7781C136.966 34.2882 136.47 33.6103 136.231 32.7444C136.003 31.8785 135.889 30.7221 135.889 29.2751V20.3201H135.274C134.601 20.3201 134.089 20.1606 133.736 19.8416C133.382 19.5225 133.206 19.1181 133.206 18.6282C133.206 18.1383 133.388 17.7395 133.753 17.4319C134.129 17.1129 134.67 16.9534 135.376 16.9534ZM152.193 19.1921V32.676C152.193 33.6103 151.97 34.3167 151.526 34.7952C151.082 35.2737 150.518 35.5129 149.834 35.5129C149.151 35.5129 148.592 35.268 148.159 34.7781C147.738 34.2882 147.527 33.5875 147.527 32.676V19.3289C147.527 18.406 147.738 17.711 148.159 17.2439C148.592 16.7768 149.151 16.5432 149.834 16.5432C150.518 16.5432 151.082 16.7768 151.526 17.2439C151.97 17.711 152.193 18.3604 152.193 19.1921ZM149.885 14.3728C149.236 14.3728 148.678 14.1734 148.211 13.7747C147.755 13.3759 147.527 12.8119 147.527 12.0828C147.527 11.422 147.761 10.8808 148.228 10.4592C148.706 10.0263 149.259 9.80981 149.885 9.80981C150.489 9.80981 151.025 10.0035 151.492 10.3909C151.959 10.7782 152.193 11.3422 152.193 12.0828C152.193 12.8005 151.965 13.3645 151.509 13.7747C151.053 14.1734 150.512 14.3728 149.885 14.3728ZM161.267 19.1238V19.6877C162.088 18.6054 162.982 17.8136 163.95 17.3123C164.93 16.7996 166.052 16.5432 167.317 16.5432C168.548 16.5432 169.647 16.811 170.615 17.3464C171.584 17.8819 172.307 18.6396 172.786 19.6194C173.094 20.189 173.293 20.8043 173.384 21.4651C173.475 22.1259 173.521 22.969 173.521 23.9944V32.676C173.521 33.6103 173.304 34.3167 172.871 34.7952C172.45 35.2737 171.897 35.5129 171.214 35.5129C170.519 35.5129 169.955 35.268 169.522 34.7781C169.089 34.2882 168.872 33.5875 168.872 32.676V24.9001C168.872 23.3621 168.656 22.1886 168.223 21.3796C167.801 20.5593 166.953 20.1492 165.677 20.1492C164.845 20.1492 164.087 20.3998 163.404 20.9011C162.72 21.391 162.219 22.0689 161.9 22.9348C161.672 23.6298 161.558 24.9286 161.558 26.8313V32.676C161.558 33.6217 161.336 34.3337 160.891 34.8123C160.458 35.2794 159.894 35.5129 159.199 35.5129C158.527 35.5129 157.975 35.268 157.542 34.7781C157.109 34.2882 156.892 33.5875 156.892 32.676V19.1921C156.892 18.3035 157.086 17.6427 157.473 17.2097C157.861 16.7654 158.391 16.5432 159.063 16.5432C159.473 16.5432 159.843 16.6401 160.174 16.8337C160.504 17.0274 160.766 17.318 160.96 17.7053C161.165 18.0927 161.267 18.5655 161.267 19.1238ZM182.493 36.094L182.92 35.0515L177.178 20.5935C176.825 19.7618 176.648 19.158 176.648 18.782C176.648 18.3832 176.751 18.0129 176.956 17.6711C177.161 17.3293 177.44 17.0559 177.793 16.8508C178.158 16.6458 178.534 16.5432 178.921 16.5432C179.593 16.5432 180.1 16.7597 180.442 17.1926C180.784 17.6142 181.086 18.2237 181.348 19.0212L185.296 30.5056L189.038 19.8245C189.335 18.9586 189.602 18.2807 189.842 17.7908C190.081 17.3009 190.331 16.9705 190.594 16.7996C190.867 16.6287 191.249 16.5432 191.739 16.5432C192.092 16.5432 192.428 16.6401 192.747 16.8337C193.077 17.016 193.328 17.2667 193.499 17.5857C193.681 17.9047 193.772 18.2408 193.772 18.594C193.727 18.8105 193.653 19.1181 193.55 19.5168C193.448 19.9156 193.322 20.3201 193.174 20.7302L187.09 36.658C186.566 38.0593 186.053 39.1588 185.552 39.9563C185.051 40.7538 184.384 41.3634 183.552 41.7849C182.732 42.2179 181.621 42.4343 180.22 42.4343C178.853 42.4343 177.827 42.2862 177.144 41.99C176.46 41.6938 176.118 41.1526 176.118 40.3665C176.118 39.831 176.278 39.4151 176.597 39.1189C176.927 38.8341 177.412 38.6917 178.05 38.6917C178.3 38.6917 178.545 38.7258 178.784 38.7942C179.081 38.8625 179.337 38.8967 179.553 38.8967C180.089 38.8967 180.51 38.817 180.818 38.6575C181.126 38.498 181.399 38.2188 181.638 37.8201C181.889 37.4327 182.174 36.8573 182.493 36.094ZM213.511 32.2488L212.315 29.1042H202.129L200.933 32.3171C200.466 33.5704 200.067 34.4192 199.737 34.8635C199.406 35.2965 198.865 35.5129 198.113 35.5129C197.475 35.5129 196.911 35.2794 196.421 34.8123C195.931 34.3451 195.686 33.8153 195.686 33.2229C195.686 32.8811 195.743 32.5279 195.857 32.1633C195.971 31.7987 196.159 31.2917 196.421 30.6423L202.83 14.3728C203.012 13.9057 203.229 13.3474 203.479 12.698C203.741 12.0372 204.015 11.4903 204.3 11.0574C204.596 10.6244 204.977 10.2769 205.445 10.0149C205.923 9.74146 206.51 9.60474 207.205 9.60474C207.911 9.60474 208.498 9.74146 208.965 10.0149C209.444 10.2769 209.825 10.6187 210.11 11.0403C210.406 11.4618 210.651 11.9176 210.845 12.4075C211.05 12.886 211.306 13.5297 211.614 14.3386L218.159 30.5056C218.672 31.7361 218.928 32.6305 218.928 33.1887C218.928 33.7698 218.684 34.3053 218.194 34.7952C217.715 35.2737 217.134 35.5129 216.45 35.5129C216.052 35.5129 215.71 35.4389 215.425 35.2908C215.14 35.1541 214.901 34.9661 214.707 34.7268C214.514 34.4762 214.303 34.1002 214.075 33.5989C213.858 33.0862 213.67 32.6361 213.511 32.2488ZM203.462 25.2932H210.948L207.171 14.9539L203.462 25.2932ZM222.346 32.676V12.4417C222.346 11.5074 222.552 10.801 222.962 10.3225C223.383 9.84399 223.947 9.60474 224.654 9.60474C225.36 9.60474 225.93 9.84399 226.363 10.3225C226.795 10.7896 227.012 11.496 227.012 12.4417V32.676C227.012 33.6217 226.79 34.3337 226.345 34.8123C225.913 35.2794 225.349 35.5129 224.654 35.5129C223.97 35.5129 223.412 35.268 222.979 34.7781C222.557 34.2882 222.346 33.5875 222.346 32.676ZM244.871 27.1731H235.745C235.756 28.2327 235.967 29.1669 236.377 29.9758C236.799 30.7847 237.351 31.3943 238.035 31.8044C238.73 32.2146 239.493 32.4197 240.325 32.4197C240.883 32.4197 241.39 32.357 241.846 32.2317C242.313 32.095 242.763 31.8899 243.196 31.6165C243.629 31.3316 244.028 31.0297 244.392 30.7107C244.757 30.3917 245.23 29.9587 245.811 29.4119C246.05 29.2068 246.392 29.1042 246.836 29.1042C247.315 29.1042 247.702 29.2353 247.998 29.4973C248.295 29.7594 248.443 30.1296 248.443 30.6082C248.443 31.0297 248.277 31.5253 247.947 32.095C247.617 32.6532 247.115 33.1944 246.443 33.7185C245.782 34.2312 244.945 34.6584 243.931 35.0002C242.928 35.342 241.772 35.5129 240.462 35.5129C237.465 35.5129 235.135 34.6584 233.472 32.9495C231.809 31.2405 230.977 28.922 230.977 25.9939C230.977 24.6153 231.182 23.3393 231.592 22.1658C232.002 20.9809 232.6 19.9669 233.386 19.1238C234.173 18.2807 235.141 17.637 236.292 17.1926C237.442 16.7369 238.719 16.509 240.12 16.509C241.943 16.509 243.504 16.8964 244.802 17.6711C246.113 18.4345 247.093 19.4257 247.742 20.6448C248.391 21.8639 248.716 23.1057 248.716 24.3704C248.716 25.5439 248.38 26.3072 247.708 26.6604C247.036 27.0022 246.09 27.1731 244.871 27.1731ZM235.745 24.5242H244.204C244.09 22.9291 243.657 21.7385 242.906 20.9524C242.165 20.1549 241.185 19.7561 239.966 19.7561C238.804 19.7561 237.847 20.1606 237.095 20.9695C236.354 21.767 235.904 22.9519 235.745 24.5242ZM257.295 28.7795V32.676C257.295 33.6217 257.073 34.3337 256.629 34.8123C256.184 35.2794 255.62 35.5129 254.937 35.5129C254.265 35.5129 253.712 35.2737 253.279 34.7952C252.846 34.3167 252.63 33.6103 252.63 32.676V19.6877C252.63 17.5914 253.387 16.5432 254.903 16.5432C255.677 16.5432 256.236 16.7882 256.577 17.2781C256.919 17.768 257.107 18.4915 257.141 19.4485C257.7 18.4915 258.269 17.768 258.85 17.2781C259.443 16.7882 260.229 16.5432 261.209 16.5432C262.189 16.5432 263.14 16.7882 264.063 17.2781C264.986 17.768 265.447 18.4174 265.447 19.2263C265.447 19.796 265.248 20.2688 264.849 20.6448C264.462 21.0094 264.04 21.1917 263.584 21.1917C263.413 21.1917 262.997 21.0891 262.337 20.884C261.687 20.6676 261.112 20.5593 260.611 20.5593C259.927 20.5593 259.369 20.7416 258.936 21.1062C258.503 21.4594 258.167 21.9892 257.927 22.6956C257.688 23.4019 257.523 24.245 257.432 25.2249C257.341 26.1933 257.295 27.3782 257.295 28.7795ZM268.711 16.9534H269.224V14.1506C269.224 13.3987 269.241 12.8119 269.275 12.3904C269.321 11.9574 269.435 11.5872 269.617 11.2795C269.799 10.9605 270.061 10.7042 270.403 10.5105C270.745 10.3054 271.127 10.2029 271.548 10.2029C272.141 10.2029 272.676 10.425 273.155 10.8694C273.474 11.1656 273.673 11.5302 273.753 11.9631C273.844 12.3847 273.889 12.9885 273.889 13.7747V16.9534H275.598C276.259 16.9534 276.76 17.1129 277.102 17.4319C277.455 17.7395 277.632 18.1383 277.632 18.6282C277.632 19.2548 277.381 19.6934 276.88 19.9441C276.39 20.1947 275.684 20.3201 274.761 20.3201H273.889V28.8992C273.889 29.6283 273.912 30.1923 273.958 30.5911C274.015 30.9784 274.151 31.2974 274.368 31.5481C274.596 31.7874 274.96 31.907 275.462 31.907C275.735 31.907 276.105 31.8614 276.573 31.7703C277.04 31.6677 277.404 31.6165 277.666 31.6165C278.042 31.6165 278.378 31.7703 278.675 32.0779C278.982 32.3741 279.136 32.7444 279.136 33.1887C279.136 33.9407 278.726 34.516 277.906 34.9148C277.085 35.3136 275.906 35.5129 274.368 35.5129C272.91 35.5129 271.804 35.268 271.052 34.7781C270.301 34.2882 269.805 33.6103 269.566 32.7444C269.338 31.8785 269.224 30.7221 269.224 29.2751V20.3201H268.609C267.936 20.3201 267.424 20.1606 267.071 19.8416C266.717 19.5225 266.541 19.1181 266.541 18.6282C266.541 18.1383 266.723 17.7395 267.088 17.4319C267.464 17.1129 268.005 16.9534 268.711 16.9534Z" fill="white"/>
<path d="M68.1728 46.9051H69.7028V52.9401H69.7368C69.9295 52.5094 70.2638 52.1637 70.7398 51.9031C71.2158 51.6311 71.7655 51.4951 72.3888 51.4951C72.7742 51.4951 73.1425 51.5574 73.4938 51.6821C73.8565 51.7954 74.1682 51.9767 74.4288 52.2261C74.7008 52.4754 74.9162 52.7984 75.0748 53.1951C75.2335 53.5804 75.3128 54.0394 75.3128 54.5721V59.7571H73.7828V54.9971C73.7828 54.6231 73.7318 54.3057 73.6298 54.0451C73.5278 53.7731 73.3918 53.5577 73.2218 53.3991C73.0518 53.2291 72.8535 53.1101 72.6268 53.0421C72.4115 52.9627 72.1848 52.9231 71.9468 52.9231C71.6295 52.9231 71.3348 52.9741 71.0628 53.0761C70.7908 53.1781 70.5528 53.3424 70.3488 53.5691C70.1448 53.7844 69.9862 54.0621 69.8728 54.4021C69.7595 54.7421 69.7028 55.1444 69.7028 55.6091V59.7571H68.1728V46.9051ZM78.7751 56.2891C78.7751 56.6404 78.8488 56.9634 78.9961 57.2581C79.1548 57.5414 79.3588 57.7851 79.6081 57.9891C79.8575 58.1931 80.1465 58.3517 80.4751 58.4651C80.8038 58.5784 81.1438 58.6351 81.4951 58.6351C81.9711 58.6351 82.3848 58.5274 82.7361 58.3121C83.0875 58.0854 83.4105 57.7907 83.7051 57.4281L84.8611 58.3121C84.0111 59.4114 82.8211 59.9611 81.2911 59.9611C80.6565 59.9611 80.0785 59.8534 79.5571 59.6381C79.0471 59.4227 78.6108 59.1281 78.2481 58.7541C77.8968 58.3687 77.6248 57.9211 77.4321 57.4111C77.2395 56.8897 77.1431 56.3287 77.1431 55.7281C77.1431 55.1274 77.2451 54.5721 77.4491 54.0621C77.6645 53.5407 77.9535 53.0931 78.3161 52.7191C78.6901 52.3337 79.1321 52.0334 79.6421 51.8181C80.1521 51.6027 80.7075 51.4951 81.3081 51.4951C82.0221 51.4951 82.6228 51.6197 83.1101 51.8691C83.6088 52.1184 84.0168 52.4471 84.3341 52.8551C84.6515 53.2517 84.8781 53.7051 85.0141 54.2151C85.1615 54.7137 85.2351 55.2237 85.2351 55.7451V56.2891H78.7751ZM83.6031 55.0651C83.5918 54.7251 83.5351 54.4134 83.4331 54.1301C83.3425 53.8467 83.2008 53.6031 83.0081 53.3991C82.8155 53.1837 82.5718 53.0194 82.2771 52.9061C81.9938 52.7814 81.6595 52.7191 81.2741 52.7191C80.9001 52.7191 80.5545 52.7927 80.2371 52.9401C79.9311 53.0761 79.6705 53.2574 79.4551 53.4841C79.2398 53.7107 79.0698 53.9657 78.9451 54.2491C78.8318 54.5211 78.7751 54.7931 78.7751 55.0651H83.6031ZM87.1844 46.9051H88.7144V59.7571H87.1844V46.9051ZM91.1494 51.6991H92.6794V52.8551H92.7134C93.0081 52.4244 93.4104 52.0901 93.9204 51.8521C94.4417 51.6141 94.9744 51.4951 95.5184 51.4951C96.1417 51.4951 96.7027 51.6027 97.2014 51.8181C97.7114 52.0334 98.1421 52.3337 98.4934 52.7191C98.8561 53.1044 99.1337 53.5577 99.3264 54.0791C99.5191 54.5891 99.6154 55.1387 99.6154 55.7281C99.6154 56.3287 99.5191 56.8897 99.3264 57.4111C99.1337 57.9211 98.8561 58.3687 98.4934 58.7541C98.1421 59.1281 97.7114 59.4227 97.2014 59.6381C96.7027 59.8534 96.1417 59.9611 95.5184 59.9611C94.9404 59.9611 94.3964 59.8421 93.8864 59.6041C93.3764 59.3547 92.9854 59.0204 92.7134 58.6011H92.6794V64.5511H91.1494V51.6991ZM95.3314 52.9231C94.9234 52.9231 94.5551 52.9967 94.2264 53.1441C93.8977 53.2801 93.6201 53.4727 93.3934 53.7221C93.1667 53.9601 92.9911 54.2547 92.8664 54.6061C92.7417 54.9461 92.6794 55.3201 92.6794 55.7281C92.6794 56.1361 92.7417 56.5157 92.8664 56.8671C92.9911 57.2071 93.1667 57.5017 93.3934 57.7511C93.6201 57.9891 93.8977 58.1817 94.2264 58.3291C94.5551 58.4651 94.9234 58.5331 95.3314 58.5331C95.7394 58.5331 96.1077 58.4651 96.4364 58.3291C96.7651 58.1817 97.0427 57.9891 97.2694 57.7511C97.4961 57.5017 97.6717 57.2071 97.7964 56.8671C97.9211 56.5157 97.9834 56.1361 97.9834 55.7281C97.9834 55.3201 97.9211 54.9461 97.7964 54.6061C97.6717 54.2547 97.4961 53.9601 97.2694 53.7221C97.0427 53.4727 96.7651 53.2801 96.4364 53.1441C96.1077 52.9967 95.7394 52.9231 95.3314 52.9231ZM106.392 51.6991H107.922V59.7571H106.392V51.6991ZM106.035 48.8091C106.035 48.5031 106.143 48.2424 106.358 48.0271C106.585 47.8004 106.851 47.6871 107.157 47.6871C107.463 47.6871 107.724 47.8004 107.939 48.0271C108.166 48.2424 108.279 48.5031 108.279 48.8091C108.279 49.1151 108.166 49.3814 107.939 49.6081C107.724 49.8234 107.463 49.9311 107.157 49.9311C106.851 49.9311 106.585 49.8234 106.358 49.6081C106.143 49.3814 106.035 49.1151 106.035 48.8091ZM110.357 51.6991H111.887V52.9401H111.921C112.114 52.5094 112.448 52.1637 112.924 51.9031C113.4 51.6311 113.95 51.4951 114.573 51.4951C114.959 51.4951 115.327 51.5574 115.678 51.6821C116.041 51.7954 116.353 51.9767 116.613 52.2261C116.885 52.4754 117.101 52.7984 117.259 53.1951C117.418 53.5804 117.497 54.0394 117.497 54.5721V59.7571H115.967V54.9971C115.967 54.6231 115.916 54.3057 115.814 54.0451C115.712 53.7731 115.576 53.5577 115.406 53.3991C115.236 53.2291 115.038 53.1101 114.811 53.0421C114.596 52.9627 114.369 52.9231 114.131 52.9231C113.814 52.9231 113.519 52.9741 113.247 53.0761C112.975 53.1781 112.737 53.3424 112.533 53.5691C112.329 53.7844 112.171 54.0621 112.057 54.4021C111.944 54.7421 111.887 55.1444 111.887 55.6091V59.7571H110.357V51.6991ZM127.879 59.7571H126.349V58.6011H126.315C126.02 59.0317 125.612 59.3661 125.091 59.6041C124.581 59.8421 124.054 59.9611 123.51 59.9611C122.886 59.9611 122.32 59.8534 121.81 59.6381C121.311 59.4227 120.88 59.1224 120.518 58.7371C120.166 58.3517 119.894 57.9041 119.702 57.3941C119.509 56.8841 119.413 56.3287 119.413 55.7281C119.413 55.1274 119.509 54.5721 119.702 54.0621C119.894 53.5407 120.166 53.0931 120.518 52.7191C120.88 52.3337 121.311 52.0334 121.81 51.8181C122.32 51.6027 122.886 51.4951 123.51 51.4951C124.088 51.4951 124.632 51.6197 125.142 51.8691C125.652 52.1071 126.043 52.4357 126.315 52.8551H126.349V46.9051H127.879V59.7571ZM123.697 58.5331C124.105 58.5331 124.473 58.4651 124.802 58.3291C125.13 58.1817 125.408 57.9891 125.635 57.7511C125.861 57.5017 126.037 57.2071 126.162 56.8671C126.286 56.5157 126.349 56.1361 126.349 55.7281C126.349 55.3201 126.286 54.9461 126.162 54.6061C126.037 54.2547 125.861 53.9601 125.635 53.7221C125.408 53.4727 125.13 53.2801 124.802 53.1441C124.473 52.9967 124.105 52.9231 123.697 52.9231C123.289 52.9231 122.92 52.9967 122.592 53.1441C122.263 53.2801 121.985 53.4727 121.759 53.7221C121.532 53.9601 121.356 54.2547 121.232 54.6061C121.107 54.9461 121.045 55.3201 121.045 55.7281C121.045 56.1361 121.107 56.5157 121.232 56.8671C121.356 57.2071 121.532 57.5017 121.759 57.7511C121.985 57.9891 122.263 58.1817 122.592 58.3291C122.92 58.4651 123.289 58.5331 123.697 58.5331ZM130.315 51.6991H131.845V59.7571H130.315V51.6991ZM129.958 48.8091C129.958 48.5031 130.066 48.2424 130.281 48.0271C130.508 47.8004 130.774 47.6871 131.08 47.6871C131.386 47.6871 131.647 47.8004 131.862 48.0271C132.089 48.2424 132.202 48.5031 132.202 48.8091C132.202 49.1151 132.089 49.3814 131.862 49.6081C131.647 49.8234 131.386 49.9311 131.08 49.9311C130.774 49.9311 130.508 49.8234 130.281 49.6081C130.066 49.3814 129.958 49.1151 129.958 48.8091ZM133.311 51.6991H135.079L137.493 57.8701L139.805 51.6991H141.437L138.275 59.7571H136.592L133.311 51.6991ZM142.899 51.6991H144.429V59.7571H142.899V51.6991ZM142.542 48.8091C142.542 48.5031 142.65 48.2424 142.865 48.0271C143.092 47.8004 143.358 47.6871 143.664 47.6871C143.97 47.6871 144.231 47.8004 144.446 48.0271C144.673 48.2424 144.786 48.5031 144.786 48.8091C144.786 49.1151 144.673 49.3814 144.446 49.6081C144.231 49.8234 143.97 49.9311 143.664 49.9311C143.358 49.9311 143.092 49.8234 142.865 49.6081C142.65 49.3814 142.542 49.1151 142.542 48.8091ZM154.939 59.7571H153.409V58.6011H153.375C153.081 59.0317 152.673 59.3661 152.151 59.6041C151.641 59.8421 151.114 59.9611 150.57 59.9611C149.947 59.9611 149.38 59.8534 148.87 59.6381C148.372 59.4227 147.941 59.1224 147.578 58.7371C147.227 58.3517 146.955 57.9041 146.762 57.3941C146.57 56.8841 146.473 56.3287 146.473 55.7281C146.473 55.1274 146.57 54.5721 146.762 54.0621C146.955 53.5407 147.227 53.0931 147.578 52.7191C147.941 52.3337 148.372 52.0334 148.87 51.8181C149.38 51.6027 149.947 51.4951 150.57 51.4951C151.148 51.4951 151.692 51.6197 152.202 51.8691C152.712 52.1071 153.103 52.4357 153.375 52.8551H153.409V46.9051H154.939V59.7571ZM150.757 58.5331C151.165 58.5331 151.534 58.4651 151.862 58.3291C152.191 58.1817 152.469 57.9891 152.695 57.7511C152.922 57.5017 153.098 57.2071 153.222 56.8671C153.347 56.5157 153.409 56.1361 153.409 55.7281C153.409 55.3201 153.347 54.9461 153.222 54.6061C153.098 54.2547 152.922 53.9601 152.695 53.7221C152.469 53.4727 152.191 53.2801 151.862 53.1441C151.534 52.9967 151.165 52.9231 150.757 52.9231C150.349 52.9231 149.981 52.9967 149.652 53.1441C149.324 53.2801 149.046 53.4727 148.819 53.7221C148.593 53.9601 148.417 54.2547 148.292 54.6061C148.168 54.9461 148.105 55.3201 148.105 55.7281C148.105 56.1361 148.168 56.5157 148.292 56.8671C148.417 57.2071 148.593 57.5017 148.819 57.7511C149.046 57.9891 149.324 58.1817 149.652 58.3291C149.981 58.4651 150.349 58.5331 150.757 58.5331ZM164.397 59.7571H162.867V58.5161H162.833C162.64 58.9467 162.306 59.2981 161.83 59.5701C161.354 59.8307 160.804 59.9611 160.181 59.9611C159.784 59.9611 159.41 59.8987 159.059 59.7741C158.707 59.6607 158.396 59.4794 158.124 59.2301C157.863 58.9807 157.653 58.6634 157.495 58.2781C157.336 57.8814 157.257 57.4167 157.257 56.8841V51.6991H158.787V56.4591C158.787 56.8331 158.838 57.1561 158.94 57.4281C159.042 57.6887 159.178 57.9041 159.348 58.0741C159.518 58.2327 159.71 58.3517 159.926 58.4311C160.152 58.4991 160.385 58.5331 160.623 58.5331C160.94 58.5331 161.235 58.4821 161.507 58.3801C161.779 58.2781 162.017 58.1194 162.221 57.9041C162.425 57.6774 162.583 57.3941 162.697 57.0541C162.81 56.7141 162.867 56.3117 162.867 55.8471V51.6991H164.397V59.7571ZM166.737 52.6851C167.168 52.2884 167.666 51.9937 168.233 51.8011C168.8 51.5971 169.366 51.4951 169.933 51.4951C170.522 51.4951 171.027 51.5687 171.446 51.7161C171.877 51.8634 172.228 52.0617 172.5 52.3111C172.772 52.5604 172.97 52.8494 173.095 53.1781C173.231 53.4954 173.299 53.8297 173.299 54.1811V58.2951C173.299 58.5784 173.305 58.8391 173.316 59.0771C173.327 59.3151 173.344 59.5417 173.367 59.7571H172.007C171.973 59.3491 171.956 58.9411 171.956 58.5331H171.922C171.582 59.0544 171.18 59.4227 170.715 59.6381C170.25 59.8534 169.712 59.9611 169.1 59.9611C168.726 59.9611 168.369 59.9101 168.029 59.8081C167.689 59.7061 167.389 59.5531 167.128 59.3491C166.879 59.1451 166.68 58.8957 166.533 58.6011C166.386 58.2951 166.312 57.9437 166.312 57.5471C166.312 57.0257 166.425 56.5894 166.652 56.2381C166.89 55.8867 167.207 55.6034 167.604 55.3881C168.012 55.1614 168.482 55.0027 169.015 54.9121C169.559 54.8101 170.137 54.7591 170.749 54.7591H171.871V54.4191C171.871 54.2151 171.831 54.0111 171.752 53.8071C171.673 53.6031 171.554 53.4217 171.395 53.2631C171.236 53.0931 171.038 52.9627 170.8 52.8721C170.562 52.7701 170.279 52.7191 169.95 52.7191C169.655 52.7191 169.395 52.7474 169.168 52.8041C168.953 52.8607 168.754 52.9344 168.573 53.0251C168.392 53.1044 168.227 53.2007 168.08 53.3141C167.933 53.4274 167.791 53.5351 167.655 53.6371L166.737 52.6851ZM171.055 55.8811C170.692 55.8811 170.318 55.9037 169.933 55.9491C169.559 55.9831 169.213 56.0567 168.896 56.1701C168.59 56.2834 168.335 56.4421 168.131 56.6461C167.938 56.8501 167.842 57.1107 167.842 57.4281C167.842 57.8927 167.995 58.2271 168.301 58.4311C168.618 58.6351 169.043 58.7371 169.576 58.7371C169.995 58.7371 170.352 58.6691 170.647 58.5331C170.942 58.3857 171.18 58.1987 171.361 57.9721C171.542 57.7454 171.673 57.4961 171.752 57.2241C171.831 56.9407 171.871 56.6631 171.871 56.3911V55.8811H171.055ZM175.638 46.9051H177.168V59.7571H175.638V46.9051ZM183.887 53.7221C183.705 53.4954 183.479 53.3084 183.207 53.1611C182.946 53.0024 182.623 52.9231 182.238 52.9231C181.875 52.9231 181.558 53.0024 181.286 53.1611C181.025 53.3084 180.895 53.5294 180.895 53.8241C180.895 54.0621 180.968 54.2547 181.116 54.4021C181.274 54.5494 181.456 54.6684 181.66 54.7591C181.875 54.8497 182.102 54.9177 182.34 54.9631C182.578 55.0084 182.782 55.0481 182.952 55.0821C183.28 55.1614 183.586 55.2577 183.87 55.3711C184.164 55.4844 184.414 55.6317 184.618 55.8131C184.833 55.9944 184.997 56.2154 185.111 56.4761C185.235 56.7367 185.298 57.0541 185.298 57.4281C185.298 57.8814 185.201 58.2724 185.009 58.6011C184.816 58.9184 184.567 59.1791 184.261 59.3831C183.955 59.5871 183.603 59.7344 183.207 59.8251C182.821 59.9157 182.43 59.9611 182.034 59.9611C181.365 59.9611 180.776 59.8591 180.266 59.6551C179.767 59.4511 179.319 59.0771 178.923 58.5331L180.079 57.5811C180.328 57.8304 180.606 58.0514 180.912 58.2441C181.218 58.4367 181.592 58.5331 182.034 58.5331C182.226 58.5331 182.419 58.5161 182.612 58.4821C182.816 58.4367 182.991 58.3744 183.139 58.2951C183.297 58.2044 183.422 58.0967 183.513 57.9721C183.615 57.8361 183.666 57.6831 183.666 57.5131C183.666 57.2864 183.592 57.0994 183.445 56.9521C183.309 56.8047 183.139 56.6914 182.935 56.6121C182.742 56.5214 182.532 56.4534 182.306 56.4081C182.09 56.3514 181.898 56.3061 181.728 56.2721C181.399 56.1927 181.087 56.1021 180.793 56.0001C180.498 55.8981 180.237 55.7621 180.011 55.5921C179.784 55.4221 179.603 55.2067 179.467 54.9461C179.331 54.6854 179.263 54.3624 179.263 53.9771C179.263 53.5577 179.348 53.1951 179.518 52.8891C179.699 52.5717 179.931 52.3111 180.215 52.1071C180.509 51.9031 180.838 51.7501 181.201 51.6481C181.575 51.5461 181.949 51.4951 182.323 51.4951C182.867 51.4951 183.388 51.5971 183.887 51.8011C184.385 52.0051 184.782 52.3451 185.077 52.8211L183.887 53.7221ZM191.922 52.6851C192.352 52.2884 192.851 51.9937 193.418 51.8011C193.984 51.5971 194.551 51.4951 195.118 51.4951C195.707 51.4951 196.211 51.5687 196.631 51.7161C197.061 51.8634 197.413 52.0617 197.685 52.3111C197.957 52.5604 198.155 52.8494 198.28 53.1781C198.416 53.4954 198.484 53.8297 198.484 54.1811V58.2951C198.484 58.5784 198.489 58.8391 198.501 59.0771C198.512 59.3151 198.529 59.5417 198.552 59.7571H197.192C197.158 59.3491 197.141 58.9411 197.141 58.5331H197.107C196.767 59.0544 196.364 59.4227 195.9 59.6381C195.435 59.8534 194.897 59.9611 194.285 59.9611C193.911 59.9611 193.554 59.9101 193.214 59.8081C192.874 59.7061 192.573 59.5531 192.313 59.3491C192.063 59.1451 191.865 58.8957 191.718 58.6011C191.57 58.2951 191.497 57.9437 191.497 57.5471C191.497 57.0257 191.61 56.5894 191.837 56.2381C192.075 55.8867 192.392 55.6034 192.789 55.3881C193.197 55.1614 193.667 55.0027 194.2 54.9121C194.744 54.8101 195.322 54.7591 195.934 54.7591H197.056V54.4191C197.056 54.2151 197.016 54.0111 196.937 53.8071C196.857 53.6031 196.738 53.4217 196.58 53.2631C196.421 53.0931 196.223 52.9627 195.985 52.8721C195.747 52.7701 195.463 52.7191 195.135 52.7191C194.84 52.7191 194.579 52.7474 194.353 52.8041C194.137 52.8607 193.939 52.9344 193.758 53.0251C193.576 53.1044 193.412 53.2007 193.265 53.3141C193.117 53.4274 192.976 53.5351 192.84 53.6371L191.922 52.6851ZM196.24 55.8811C195.877 55.8811 195.503 55.9037 195.118 55.9491C194.744 55.9831 194.398 56.0567 194.081 56.1701C193.775 56.2834 193.52 56.4421 193.316 56.6461C193.123 56.8501 193.027 57.1107 193.027 57.4281C193.027 57.8927 193.18 58.2271 193.486 58.4311C193.803 58.6351 194.228 58.7371 194.761 58.7371C195.18 58.7371 195.537 58.6691 195.832 58.5331C196.126 58.3857 196.364 58.1987 196.546 57.9721C196.727 57.7454 196.857 57.4961 196.937 57.2241C197.016 56.9407 197.056 56.6631 197.056 56.3911V55.8811H196.24ZM206.466 53.8411C206.183 53.5464 205.882 53.3254 205.565 53.1781C205.259 53.0194 204.891 52.9401 204.46 52.9401C204.041 52.9401 203.672 53.0194 203.355 53.1781C203.049 53.3254 202.788 53.5351 202.573 53.8071C202.369 54.0677 202.21 54.3737 202.097 54.7251C201.995 55.0651 201.944 55.4221 201.944 55.7961C201.944 56.1701 202.006 56.5271 202.131 56.8671C202.256 57.1957 202.431 57.4847 202.658 57.7341C202.885 57.9834 203.157 58.1817 203.474 58.3291C203.791 58.4651 204.148 58.5331 204.545 58.5331C204.976 58.5331 205.344 58.4594 205.65 58.3121C205.956 58.1534 206.239 57.9267 206.5 57.6321L207.588 58.7201C207.191 59.1621 206.727 59.4794 206.194 59.6721C205.673 59.8647 205.117 59.9611 204.528 59.9611C203.905 59.9611 203.332 59.8591 202.811 59.6551C202.301 59.4511 201.859 59.1677 201.485 58.8051C201.111 58.4311 200.822 57.9891 200.618 57.4791C200.414 56.9577 200.312 56.3854 200.312 55.7621C200.312 55.1387 200.414 54.5664 200.618 54.0451C200.822 53.5237 201.105 53.0761 201.468 52.7021C201.842 52.3281 202.284 52.0391 202.794 51.8351C203.315 51.6197 203.893 51.5121 204.528 51.5121C205.117 51.5121 205.678 51.6197 206.211 51.8351C206.755 52.0391 207.225 52.3564 207.622 52.7871L206.466 53.8411ZM208.904 46.9051H210.434V52.9401H210.468C210.661 52.5094 210.995 52.1637 211.471 51.9031C211.947 51.6311 212.497 51.4951 213.12 51.4951C213.506 51.4951 213.874 51.5574 214.225 51.6821C214.588 51.7954 214.9 51.9767 215.16 52.2261C215.432 52.4754 215.648 52.7984 215.806 53.1951C215.965 53.5804 216.044 54.0394 216.044 54.5721V59.7571H214.514V54.9971C214.514 54.6231 214.463 54.3057 214.361 54.0451C214.259 53.7731 214.123 53.5577 213.953 53.3991C213.783 53.2291 213.585 53.1101 213.358 53.0421C213.143 52.9627 212.916 52.9231 212.678 52.9231C212.361 52.9231 212.066 52.9741 211.794 53.0761C211.522 53.1781 211.284 53.3424 211.08 53.5691C210.876 53.7844 210.718 54.0621 210.604 54.4021C210.491 54.7421 210.434 55.1444 210.434 55.6091V59.7571H208.904V46.9051ZM218.47 51.6991H220V59.7571H218.47V51.6991ZM218.113 48.8091C218.113 48.5031 218.22 48.2424 218.436 48.0271C218.662 47.8004 218.929 47.6871 219.235 47.6871C219.541 47.6871 219.801 47.8004 220.017 48.0271C220.243 48.2424 220.357 48.5031 220.357 48.8091C220.357 49.1151 220.243 49.3814 220.017 49.6081C219.801 49.8234 219.541 49.9311 219.235 49.9311C218.929 49.9311 218.662 49.8234 218.436 49.6081C218.22 49.3814 218.113 49.1151 218.113 48.8091ZM223.591 56.2891C223.591 56.6404 223.664 56.9634 223.812 57.2581C223.97 57.5414 224.174 57.7851 224.424 57.9891C224.673 58.1931 224.962 58.3517 225.291 58.4651C225.619 58.5784 225.959 58.6351 226.311 58.6351C226.787 58.6351 227.2 58.5274 227.552 58.3121C227.903 58.0854 228.226 57.7907 228.521 57.4281L229.677 58.3121C228.827 59.4114 227.637 59.9611 226.107 59.9611C225.472 59.9611 224.894 59.8534 224.373 59.6381C223.863 59.4227 223.426 59.1281 223.064 58.7541C222.712 58.3687 222.44 57.9211 222.248 57.4111C222.055 56.8897 221.959 56.3287 221.959 55.7281C221.959 55.1274 222.061 54.5721 222.265 54.0621C222.48 53.5407 222.769 53.0931 223.132 52.7191C223.506 52.3337 223.948 52.0334 224.458 51.8181C224.968 51.6027 225.523 51.4951 226.124 51.4951C226.838 51.4951 227.438 51.6197 227.926 51.8691C228.424 52.1184 228.832 52.4471 229.15 52.8551C229.467 53.2517 229.694 53.7051 229.83 54.2151C229.977 54.7137 230.051 55.2237 230.051 55.7451V56.2891H223.591ZM228.419 55.0651C228.407 54.7251 228.351 54.4134 228.249 54.1301C228.158 53.8467 228.016 53.6031 227.824 53.3991C227.631 53.1837 227.387 53.0194 227.093 52.9061C226.809 52.7814 226.475 52.7191 226.09 52.7191C225.716 52.7191 225.37 52.7927 225.053 52.9401C224.747 53.0761 224.486 53.2574 224.271 53.4841C224.055 53.7107 223.885 53.9657 223.761 54.2491C223.647 54.5211 223.591 54.7931 223.591 55.0651H228.419ZM230.912 51.6991H232.68L235.094 57.8701L237.406 51.6991H239.038L235.876 59.7571H234.193L230.912 51.6991ZM241.537 56.2891C241.537 56.6404 241.611 56.9634 241.758 57.2581C241.917 57.5414 242.121 57.7851 242.37 57.9891C242.619 58.1931 242.908 58.3517 243.237 58.4651C243.566 58.5784 243.906 58.6351 244.257 58.6351C244.733 58.6351 245.147 58.5274 245.498 58.3121C245.849 58.0854 246.172 57.7907 246.467 57.4281L247.623 58.3121C246.773 59.4114 245.583 59.9611 244.053 59.9611C243.418 59.9611 242.84 59.8534 242.319 59.6381C241.809 59.4227 241.373 59.1281 241.01 58.7541C240.659 58.3687 240.387 57.9211 240.194 57.4111C240.001 56.8897 239.905 56.3287 239.905 55.7281C239.905 55.1274 240.007 54.5721 240.211 54.0621C240.426 53.5407 240.715 53.0931 241.078 52.7191C241.452 52.3337 241.894 52.0334 242.404 51.8181C242.914 51.6027 243.469 51.4951 244.07 51.4951C244.784 51.4951 245.385 51.6197 245.872 51.8691C246.371 52.1184 246.779 52.4471 247.096 52.8551C247.413 53.2517 247.64 53.7051 247.776 54.2151C247.923 54.7137 247.997 55.2237 247.997 55.7451V56.2891H241.537ZM246.365 55.0651C246.354 54.7251 246.297 54.4134 246.195 54.1301C246.104 53.8467 245.963 53.6031 245.77 53.3991C245.577 53.1837 245.334 53.0194 245.039 52.9061C244.756 52.7814 244.421 52.7191 244.036 52.7191C243.662 52.7191 243.316 52.7927 242.999 52.9401C242.693 53.0761 242.432 53.2574 242.217 53.4841C242.002 53.7107 241.832 53.9657 241.707 54.2491C241.594 54.5211 241.537 54.7931 241.537 55.0651H246.365ZM262.634 59.6891C262.634 60.3011 262.526 60.8564 262.311 61.3551C262.107 61.8651 261.812 62.3014 261.427 62.6641C261.041 63.0381 260.577 63.3271 260.033 63.5311C259.489 63.7351 258.888 63.8371 258.231 63.8371C257.46 63.8371 256.752 63.7294 256.106 63.5141C255.471 63.2987 254.865 62.9247 254.287 62.3921L255.324 61.1001C255.72 61.5307 256.151 61.8537 256.616 62.0691C257.08 62.2957 257.607 62.4091 258.197 62.4091C258.763 62.4091 259.234 62.3241 259.608 62.1541C259.982 61.9954 260.276 61.7857 260.492 61.5251C260.718 61.2644 260.877 60.9641 260.968 60.6241C261.058 60.2954 261.104 59.9611 261.104 59.6211V58.4311H261.053C260.758 58.9184 260.356 59.2811 259.846 59.5191C259.347 59.7457 258.82 59.8591 258.265 59.8591C257.675 59.8591 257.126 59.7571 256.616 59.5531C256.117 59.3377 255.686 59.0487 255.324 58.6861C254.961 58.3121 254.678 57.8757 254.474 57.3771C254.27 56.8671 254.168 56.3174 254.168 55.7281C254.168 55.1387 254.264 54.5891 254.457 54.0791C254.649 53.5577 254.921 53.1044 255.273 52.7191C255.635 52.3337 256.066 52.0334 256.565 51.8181C257.075 51.6027 257.641 51.4951 258.265 51.4951C258.809 51.4951 259.336 51.6141 259.846 51.8521C260.367 52.0901 260.775 52.4244 261.07 52.8551H261.104V51.6991H262.634V59.6891ZM258.452 52.9231C258.044 52.9231 257.675 52.9967 257.347 53.1441C257.018 53.2801 256.74 53.4727 256.514 53.7221C256.287 53.9601 256.111 54.2547 255.987 54.6061C255.862 54.9461 255.8 55.3201 255.8 55.7281C255.8 56.5441 256.038 57.2014 256.514 57.7001C256.99 58.1874 257.636 58.4311 258.452 58.4311C259.268 58.4311 259.914 58.1874 260.39 57.7001C260.866 57.2014 261.104 56.5441 261.104 55.7281C261.104 55.3201 261.041 54.9461 260.917 54.6061C260.792 54.2547 260.616 53.9601 260.39 53.7221C260.163 53.4727 259.885 53.2801 259.557 53.1441C259.228 52.9967 258.86 52.9231 258.452 52.9231ZM266.192 55.7281C266.192 56.1361 266.254 56.5157 266.379 56.8671C266.504 57.2071 266.679 57.5017 266.906 57.7511C267.133 57.9891 267.41 58.1817 267.739 58.3291C268.068 58.4651 268.436 58.5331 268.844 58.5331C269.252 58.5331 269.62 58.4651 269.949 58.3291C270.278 58.1817 270.555 57.9891 270.782 57.7511C271.009 57.5017 271.184 57.2071 271.309 56.8671C271.434 56.5157 271.496 56.1361 271.496 55.7281C271.496 55.3201 271.434 54.9461 271.309 54.6061C271.184 54.2547 271.009 53.9601 270.782 53.7221C270.555 53.4727 270.278 53.2801 269.949 53.1441C269.62 52.9967 269.252 52.9231 268.844 52.9231C268.436 52.9231 268.068 52.9967 267.739 53.1441C267.41 53.2801 267.133 53.4727 266.906 53.7221C266.679 53.9601 266.504 54.2547 266.379 54.6061C266.254 54.9461 266.192 55.3201 266.192 55.7281ZM264.56 55.7281C264.56 55.1387 264.668 54.5891 264.883 54.0791C265.11 53.5691 265.416 53.1214 265.801 52.7361C266.186 52.3507 266.64 52.0504 267.161 51.8351C267.682 51.6084 268.243 51.4951 268.844 51.4951C269.445 51.4951 270.006 51.6084 270.527 51.8351C271.048 52.0504 271.502 52.3507 271.887 52.7361C272.272 53.1214 272.573 53.5691 272.788 54.0791C273.015 54.5891 273.128 55.1387 273.128 55.7281C273.128 56.3174 273.015 56.8727 272.788 57.3941C272.573 57.9041 272.272 58.3517 271.887 58.7371C271.502 59.1111 271.048 59.4114 270.527 59.6381C270.006 59.8534 269.445 59.9611 268.844 59.9611C268.243 59.9611 267.682 59.8534 267.161 59.6381C266.64 59.4114 266.186 59.1111 265.801 58.7371C265.416 58.3517 265.11 57.9041 264.883 57.3941C264.668 56.8727 264.56 56.3174 264.56 55.7281ZM275.079 52.6851C275.51 52.2884 276.008 51.9937 276.575 51.8011C277.142 51.5971 277.708 51.4951 278.275 51.4951C278.864 51.4951 279.369 51.5687 279.788 51.7161C280.219 51.8634 280.57 52.0617 280.842 52.3111C281.114 52.5604 281.312 52.8494 281.437 53.1781C281.573 53.4954 281.641 53.8297 281.641 54.1811V58.2951C281.641 58.5784 281.647 58.8391 281.658 59.0771C281.669 59.3151 281.686 59.5417 281.709 59.7571H280.349C280.315 59.3491 280.298 58.9411 280.298 58.5331H280.264C279.924 59.0544 279.522 59.4227 279.057 59.6381C278.592 59.8534 278.054 59.9611 277.442 59.9611C277.068 59.9611 276.711 59.9101 276.371 59.8081C276.031 59.7061 275.731 59.5531 275.47 59.3491C275.221 59.1451 275.022 58.8957 274.875 58.6011C274.728 58.2951 274.654 57.9437 274.654 57.5471C274.654 57.0257 274.767 56.5894 274.994 56.2381C275.232 55.8867 275.549 55.6034 275.946 55.3881C276.354 55.1614 276.824 55.0027 277.357 54.9121C277.901 54.8101 278.479 54.7591 279.091 54.7591H280.213V54.4191C280.213 54.2151 280.173 54.0111 280.094 53.8071C280.015 53.6031 279.896 53.4217 279.737 53.2631C279.578 53.0931 279.38 52.9627 279.142 52.8721C278.904 52.7701 278.621 52.7191 278.292 52.7191C277.997 52.7191 277.737 52.7474 277.51 52.8041C277.295 52.8607 277.096 52.9344 276.915 53.0251C276.734 53.1044 276.569 53.2007 276.422 53.3141C276.275 53.4274 276.133 53.5351 275.997 53.6371L275.079 52.6851ZM279.397 55.8811C279.034 55.8811 278.66 55.9037 278.275 55.9491C277.901 55.9831 277.555 56.0567 277.238 56.1701C276.932 56.2834 276.677 56.4421 276.473 56.6461C276.28 56.8501 276.184 57.1107 276.184 57.4281C276.184 57.8927 276.337 58.2271 276.643 58.4311C276.96 58.6351 277.385 58.7371 277.918 58.7371C278.337 58.7371 278.694 58.6691 278.989 58.5331C279.284 58.3857 279.522 58.1987 279.703 57.9721C279.884 57.7454 280.015 57.4961 280.094 57.2241C280.173 56.9407 280.213 56.6631 280.213 56.3911V55.8811H279.397ZM283.979 46.9051H285.509V59.7571H283.979V46.9051ZM292.228 53.7221C292.047 53.4954 291.82 53.3084 291.548 53.1611C291.288 53.0024 290.965 52.9231 290.579 52.9231C290.217 52.9231 289.899 53.0024 289.627 53.1611C289.367 53.3084 289.236 53.5294 289.236 53.8241C289.236 54.0621 289.31 54.2547 289.457 54.4021C289.616 54.5494 289.797 54.6684 290.001 54.7591C290.217 54.8497 290.443 54.9177 290.681 54.9631C290.919 55.0084 291.123 55.0481 291.293 55.0821C291.622 55.1614 291.928 55.2577 292.211 55.3711C292.506 55.4844 292.755 55.6317 292.959 55.8131C293.175 55.9944 293.339 56.2154 293.452 56.4761C293.577 56.7367 293.639 57.0541 293.639 57.4281C293.639 57.8814 293.543 58.2724 293.35 58.6011C293.158 58.9184 292.908 59.1791 292.602 59.3831C292.296 59.5871 291.945 59.7344 291.548 59.8251C291.163 59.9157 290.772 59.9611 290.375 59.9611C289.707 59.9611 289.117 59.8591 288.607 59.6551C288.109 59.4511 287.661 59.0771 287.264 58.5331L288.42 57.5811C288.67 57.8304 288.947 58.0514 289.253 58.2441C289.559 58.4367 289.933 58.5331 290.375 58.5331C290.568 58.5331 290.761 58.5161 290.953 58.4821C291.157 58.4367 291.333 58.3744 291.48 58.2951C291.639 58.2044 291.764 58.0967 291.854 57.9721C291.956 57.8361 292.007 57.6831 292.007 57.5131C292.007 57.2864 291.934 57.0994 291.786 56.9521C291.65 56.8047 291.48 56.6914 291.276 56.6121C291.084 56.5214 290.874 56.4534 290.647 56.4081C290.432 56.3514 290.239 56.3061 290.069 56.2721C289.741 56.1927 289.429 56.1021 289.134 56.0001C288.84 55.8981 288.579 55.7621 288.352 55.5921C288.126 55.4221 287.944 55.2067 287.808 54.9461C287.672 54.6854 287.604 54.3624 287.604 53.9771C287.604 53.5577 287.689 53.1951 287.859 52.8891C288.041 52.5717 288.273 52.3111 288.556 52.1071C288.851 51.9031 289.18 51.7501 289.542 51.6481C289.916 51.5461 290.29 51.4951 290.664 51.4951C291.208 51.4951 291.73 51.5971 292.228 51.8011C292.727 52.0051 293.124 52.3451 293.418 52.8211L292.228 53.7221Z" fill="white"/>
<defs>
<linearGradient id="paint0_linear" x1="44.2415" y1="24.7679" x2="13.9737" y2="62.6925" gradientUnits="userSpaceOnUse">
<stop stop-color="#70B0ED"/>
<stop offset="1" stop-color="#1FBFD2"/>
</linearGradient>
<linearGradient id="paint1_linear" x1="42.8278" y1="26.1757" x2="16.1922" y2="59.5493" gradientUnits="userSpaceOnUse">
<stop stop-color="#70B0ED"/>
<stop offset="1" stop-color="#1FBFD2"/>
</linearGradient>
<linearGradient id="paint2_linear" x1="32.4612" y1="44.5801" x2="32.4612" y2="22.9429" gradientUnits="userSpaceOnUse">
<stop stop-color="#0ECEA6"/>
<stop offset="0.55" stop-color="#00DDD0"/>
<stop offset="0.841" stop-color="#08D0E6"/>
<stop offset="1" stop-color="#28A6FF"/>
</linearGradient>
</defs>
</svg>
